M48
; DRILL file {KiCad (6.0.2)} date Wed 09 Mar 2022 02:23:40 PM CET
; FORMAT={-:-/ absolute / metric / decimal}
; #@! TF.CreationDate,2022-03-09T14:23:40+01:00
; #@! TF.GenerationSoftware,Kicad,Pcbnew,(6.0.2)
; #@! TF.FileFunction,Plated,1,4,PTH
FMAT,2
METRIC
; #@! TA.AperFunction,Plated,PTH,ViaDrill
T1C0.200
; #@! TA.AperFunction,Plated,PTH,ComponentDrill
T2C0.300
; #@! TA.AperFunction,Plated,PTH,ComponentDrill
T3C0.600
; #@! TA.AperFunction,Plated,PTH,ComponentDrill
T4C0.800
%
G90
G05
T1
X149.4Y-92.6
X149.8Y-79.4
X149.9Y-87.5
X150.5Y-92.5
X150.85Y-86.23
X151.05Y-81.6
X151.5Y-79.4
X151.8Y-91.6
X151.8Y-92.6
X152.1Y-86.2
X152.1Y-87.5
X152.3Y-79.7
X152.3Y-85.4
X152.4Y-80.8
X152.4Y-89.65
X152.75Y-92.0
X153.05Y-88.75
X153.2Y-84.95
X153.35Y-85.75
X153.35Y-86.95
X154.35Y-79.5
X154.4Y-90.85
X155.65Y-92.35
X156.215Y-84.185
X156.5Y-81.4
X157.0Y-92.25
X157.3Y-86.6
X158.0Y-89.55
X158.3Y-86.575
X158.3Y-87.4
X158.4Y-84.4
X158.5Y-83.45
X158.544Y-82.793
X158.55Y-92.3
X158.6Y-81.45
X159.4Y-82.3
X159.5Y-85.5
X159.5Y-89.8
X159.5Y-90.4
X159.8Y-83.6
X159.8Y-91.6
X159.826Y-89.3
X159.85Y-81.5
X160.0Y-86.1
X160.0Y-87.2
X160.2Y-80.712
X160.4Y-89.5
X160.828Y-83.698
X161.0Y-87.1
X161.05Y-92.05
X161.1Y-89.6
X161.6Y-83.9
X161.6Y-92.3
X161.7Y-86.5
X161.8Y-89.2
X161.8Y-90.1
X161.9Y-87.6
X162.0Y-85.1
X162.0Y-88.2
X162.015Y-90.685
X162.1Y-85.7
X162.2Y-84.0
X162.35Y-81.65
X162.85Y-81.0
X162.9Y-80.275
X163.1Y-91.5
X163.5Y-89.1
X163.6Y-90.1
X163.7Y-84.474
X163.7Y-85.1
X163.7Y-87.6
X164.3Y-85.2
X164.3Y-87.6
X164.4Y-81.3
X164.4Y-83.6
X164.46Y-92.024
X164.6Y-90.1
X165.0Y-85.2
X165.0Y-87.6
X165.2Y-81.174
X165.4Y-86.6
X165.6Y-89.5
X165.7Y-90.4
X165.75Y-80.85
X165.8Y-80.2
X165.813Y-87.583
X165.9Y-84.8
X166.9Y-89.0
X167.1Y-90.9
X167.7Y-89.1
X167.9Y-90.9
X168.124Y-84.2
X168.15Y-81.35
X168.7Y-84.2
X168.872Y-81.55
X169.3Y-92.2
X169.4Y-87.3
X169.4Y-88.0
X169.4Y-88.6
X169.4Y-89.2
X169.5Y-84.8
X169.5Y-89.8
X170.1Y-89.55
X170.3Y-84.9
X170.8Y-89.4
X171.0Y-84.8
X171.0Y-90.0
X171.05Y-82.55
X171.6Y-90.0
X171.6Y-91.6
X171.8Y-83.0
X172.2Y-90.1
X172.4Y-91.6
X172.9Y-83.0
X173.0Y-90.1
X173.8Y-83.0
X174.4Y-83.05
X174.6Y-87.2
X174.6Y-89.2
X175.1Y-83.05
X175.1Y-84.0
X175.3Y-90.7
X176.0Y-91.1
X177.15Y-84.1
X177.3Y-90.1
X177.6Y-85.15
X178.2Y-86.8
X178.2Y-87.7
X178.3Y-88.4
X178.8Y-85.85
X179.3Y-84.7
X180.0Y-89.7
X180.2Y-90.8
X180.3Y-87.6
X180.3Y-89.1
X180.4Y-83.6
X180.5Y-81.2
X180.5Y-82.9
X180.5Y-92.0
X180.8Y-89.9
X180.9Y-82.2
X182.6Y-85.5
X183.0Y-79.4
X184.1Y-92.6
X185.8Y-79.4
X185.8Y-92.6
X188.1Y-81.7
X188.1Y-90.3
T2
X170.725Y-86.125
X170.725Y-87.4
X170.725Y-88.675
X172.0Y-86.125
X172.0Y-87.4
X172.0Y-88.675
X173.275Y-86.125
X173.275Y-87.4
X173.275Y-88.675
T4
X148.5Y-80.0
X148.5Y-81.5
X148.5Y-83.0
X148.5Y-84.5
X148.5Y-86.0
X148.5Y-87.5
X148.5Y-89.0
X148.5Y-90.5
X148.5Y-92.0
X179.0Y-79.0
X180.5Y-79.0
X180.5Y-93.0
X182.0Y-79.0
X182.0Y-93.0
T3
G00X181.82Y-81.68
M15
G01X182.92Y-81.68
M16
G05
G00X181.82Y-90.32
M15
G01X182.92Y-90.32
M16
G05
G00X186.25Y-81.68
M15
G01X186.85Y-81.68
M16
G05
G00X186.25Y-90.32
M15
G01X186.85Y-90.32
M16
G05
T0
M30
