G04 #@! TF.GenerationSoftware,KiCad,Pcbnew,(6.0.2)*
G04 #@! TF.CreationDate,2022-03-09T14:23:31+01:00*
G04 #@! TF.ProjectId,rs-probe,72732d70-726f-4626-952e-6b696361645f,rev?*
G04 #@! TF.SameCoordinates,Original*
G04 #@! TF.FileFunction,Soldermask,Top*
G04 #@! TF.FilePolarity,Negative*
%FSLAX46Y46*%
G04 Gerber Fmt 4.6, Leading zero omitted, Abs format (unit mm)*
G04 Created by KiCad (PCBNEW (6.0.2)) date 2022-03-09 14:23:31*
%MOMM*%
%LPD*%
G01*
G04 APERTURE LIST*
G04 Aperture macros list*
%AMRoundRect*
0 Rectangle with rounded corners*
0 $1 Rounding radius*
0 $2 $3 $4 $5 $6 $7 $8 $9 X,Y pos of 4 corners*
0 Add a 4 corners polygon primitive as box body*
4,1,4,$2,$3,$4,$5,$6,$7,$8,$9,$2,$3,0*
0 Add four circle primitives for the rounded corners*
1,1,$1+$1,$2,$3*
1,1,$1+$1,$4,$5*
1,1,$1+$1,$6,$7*
1,1,$1+$1,$8,$9*
0 Add four rect primitives between the rounded corners*
20,1,$1+$1,$2,$3,$4,$5,0*
20,1,$1+$1,$4,$5,$6,$7,0*
20,1,$1+$1,$6,$7,$8,$9,0*
20,1,$1+$1,$8,$9,$2,$3,0*%
%AMFreePoly0*
4,1,6,0.175000,-0.100000,-0.225000,-0.100000,-0.225000,-0.025000,-0.050000,0.150000,0.175000,0.150000,0.175000,-0.100000,0.175000,-0.100000,$1*%
%AMFreePoly1*
4,1,6,0.225000,-0.025000,0.225000,-0.100000,-0.175000,-0.100000,-0.175000,0.150000,0.050000,0.150000,0.225000,-0.025000,0.225000,-0.025000,$1*%
G04 Aperture macros list end*
%ADD10RoundRect,0.137500X-0.137500X-0.137500X0.137500X-0.137500X0.137500X0.137500X-0.137500X0.137500X0*%
%ADD11RoundRect,0.137500X-0.137500X0.137500X-0.137500X-0.137500X0.137500X-0.137500X0.137500X0.137500X0*%
%ADD12RoundRect,0.185000X-1.015000X-0.185000X1.015000X-0.185000X1.015000X0.185000X-1.015000X0.185000X0*%
%ADD13C,0.650000*%
%ADD14RoundRect,0.150000X0.575000X-0.150000X0.575000X0.150000X-0.575000X0.150000X-0.575000X-0.150000X0*%
%ADD15O,1.450000X0.300000*%
%ADD16O,2.100000X1.000000*%
%ADD17O,1.600000X1.000000*%
%ADD18RoundRect,0.125000X0.200000X0.000000X-0.200000X0.000000X-0.200000X0.000000X0.200000X0.000000X0*%
%ADD19RoundRect,0.125000X0.125000X1.925000X-0.125000X1.925000X-0.125000X-1.925000X0.125000X-1.925000X0*%
%ADD20RoundRect,0.137500X0.137500X-0.137500X0.137500X0.137500X-0.137500X0.137500X-0.137500X-0.137500X0*%
%ADD21RoundRect,0.050000X-0.050000X0.387500X-0.050000X-0.387500X0.050000X-0.387500X0.050000X0.387500X0*%
%ADD22RoundRect,0.050000X-0.387500X0.050000X-0.387500X-0.050000X0.387500X-0.050000X0.387500X0.050000X0*%
%ADD23RoundRect,0.144000X-1.456000X1.456000X-1.456000X-1.456000X1.456000X-1.456000X1.456000X1.456000X0*%
%ADD24R,0.330000X0.270000*%
%ADD25RoundRect,0.137500X0.137500X0.137500X-0.137500X0.137500X-0.137500X-0.137500X0.137500X-0.137500X0*%
%ADD26R,1.100000X1.100000*%
%ADD27FreePoly0,270.000000*%
%ADD28FreePoly1,90.000000*%
%ADD29FreePoly0,90.000000*%
%ADD30FreePoly1,270.000000*%
%ADD31RoundRect,0.120000X0.000000X-0.169706X0.169706X0.000000X0.000000X0.169706X-0.169706X0.000000X0*%
%ADD32RoundRect,0.075000X-0.150000X-0.075000X0.150000X-0.075000X0.150000X0.075000X-0.150000X0.075000X0*%
%ADD33RoundRect,0.062500X0.087500X-0.062500X0.087500X0.062500X-0.087500X0.062500X-0.087500X-0.062500X0*%
%ADD34R,0.940000X0.300000*%
%ADD35R,0.650000X0.850000*%
%ADD36O,0.250000X0.600000*%
%ADD37R,1.600000X0.200000*%
%ADD38RoundRect,0.075000X0.075000X-0.150000X0.075000X0.150000X-0.075000X0.150000X-0.075000X-0.150000X0*%
%ADD39RoundRect,0.218750X0.218750X0.256250X-0.218750X0.256250X-0.218750X-0.256250X0.218750X-0.256250X0*%
%ADD40RoundRect,0.175000X-0.175000X0.275000X-0.175000X-0.275000X0.175000X-0.275000X0.175000X0.275000X0*%
%ADD41R,1.450000X0.700000*%
%ADD42C,1.100000*%
%ADD43C,0.990600*%
G04 APERTURE END LIST*
D10*
X179650000Y-80700000D03*
X178750000Y-80700000D03*
X181550000Y-80250000D03*
X180650000Y-80250000D03*
D11*
X176900000Y-80750000D03*
X176900000Y-79850000D03*
X177800000Y-80750000D03*
X177800000Y-79850000D03*
D12*
X150850000Y-83690000D03*
X154750000Y-83690000D03*
X150850000Y-84960000D03*
X154750000Y-84960000D03*
X150850000Y-86230000D03*
X154750000Y-86230000D03*
X150850000Y-87500000D03*
X154750000Y-87500000D03*
X150850000Y-88770000D03*
X154750000Y-88770000D03*
X150850000Y-90040000D03*
X154750000Y-90040000D03*
X150850000Y-91310000D03*
X154750000Y-91310000D03*
D13*
X182900000Y-83110000D03*
X182900000Y-88890000D03*
D14*
X181455000Y-89250000D03*
X181455000Y-88450000D03*
D15*
X181455000Y-87250000D03*
X181455000Y-86250000D03*
X181455000Y-85750000D03*
X181455000Y-84750000D03*
D14*
X181455000Y-83550000D03*
X181455000Y-82750000D03*
X181455000Y-82750000D03*
X181455000Y-83550000D03*
D15*
X181455000Y-84250000D03*
X181455000Y-85250000D03*
X181455000Y-86750000D03*
X181455000Y-87750000D03*
D14*
X181455000Y-88450000D03*
X181455000Y-89250000D03*
D16*
X182370000Y-90320000D03*
X182370000Y-81680000D03*
D17*
X186550000Y-90320000D03*
X186550000Y-81680000D03*
D18*
X158825000Y-91550000D03*
X158825000Y-91050000D03*
X158825000Y-90550000D03*
X158825000Y-90050000D03*
X158825000Y-89550000D03*
X158825000Y-89050000D03*
X158825000Y-88550000D03*
X158825000Y-88050000D03*
X157175000Y-88050000D03*
X157175000Y-88550000D03*
X157175000Y-89050000D03*
X157175000Y-89550000D03*
X157175000Y-90050000D03*
X157175000Y-90550000D03*
X157175000Y-91050000D03*
X157175000Y-91550000D03*
D19*
X158000000Y-89800000D03*
D10*
X156575000Y-85100000D03*
X157475000Y-85100000D03*
D20*
X179300000Y-84050000D03*
X179300000Y-83150000D03*
D21*
X174600000Y-83962500D03*
X174200000Y-83962500D03*
X173800000Y-83962500D03*
X173400000Y-83962500D03*
X173000000Y-83962500D03*
X172600000Y-83962500D03*
X172200000Y-83962500D03*
X171800000Y-83962500D03*
X171400000Y-83962500D03*
X171000000Y-83962500D03*
X170600000Y-83962500D03*
X170200000Y-83962500D03*
X169800000Y-83962500D03*
X169400000Y-83962500D03*
D22*
X168562500Y-84800000D03*
X168562500Y-85200000D03*
X168562500Y-85600000D03*
X168562500Y-86000000D03*
X168562500Y-86400000D03*
X168562500Y-86800000D03*
X168562500Y-87200000D03*
X168562500Y-87600000D03*
X168562500Y-88000000D03*
X168562500Y-88400000D03*
X168562500Y-88800000D03*
X168562500Y-89200000D03*
X168562500Y-89600000D03*
X168562500Y-90000000D03*
D21*
X169400000Y-90837500D03*
X169800000Y-90837500D03*
X170200000Y-90837500D03*
X170600000Y-90837500D03*
X171000000Y-90837500D03*
X171400000Y-90837500D03*
X171800000Y-90837500D03*
X172200000Y-90837500D03*
X172600000Y-90837500D03*
X173000000Y-90837500D03*
X173400000Y-90837500D03*
X173800000Y-90837500D03*
X174200000Y-90837500D03*
X174600000Y-90837500D03*
D22*
X175437500Y-90000000D03*
X175437500Y-89600000D03*
X175437500Y-89200000D03*
X175437500Y-88800000D03*
X175437500Y-88400000D03*
X175437500Y-88000000D03*
X175437500Y-87600000D03*
X175437500Y-87200000D03*
X175437500Y-86800000D03*
X175437500Y-86400000D03*
X175437500Y-86000000D03*
X175437500Y-85600000D03*
X175437500Y-85200000D03*
X175437500Y-84800000D03*
D23*
X172000000Y-87400000D03*
D11*
X165000000Y-83650000D03*
X165000000Y-84550000D03*
D24*
X161140000Y-86600000D03*
X161140000Y-86100000D03*
X161140000Y-85600000D03*
X160460000Y-85600000D03*
X160460000Y-86100000D03*
X160460000Y-86600000D03*
D25*
X172450000Y-92200000D03*
X171550000Y-92200000D03*
D26*
X164800000Y-80200000D03*
X167600000Y-80200000D03*
D10*
X162850000Y-83650000D03*
X163750000Y-83650000D03*
D20*
X168500000Y-82950000D03*
X168500000Y-82050000D03*
D10*
X164150000Y-85800000D03*
X165050000Y-85800000D03*
D20*
X164900000Y-92350000D03*
X164900000Y-91450000D03*
D25*
X157475000Y-86000000D03*
X156575000Y-86000000D03*
D10*
X164150000Y-89200000D03*
X165050000Y-89200000D03*
D25*
X162100000Y-82200000D03*
X161200000Y-82200000D03*
X166950000Y-86700000D03*
X166050000Y-86700000D03*
D27*
X162850000Y-82875000D03*
D28*
X163550000Y-82875000D03*
D29*
X163550000Y-81925000D03*
D30*
X162850000Y-81925000D03*
D31*
X163200000Y-82400000D03*
D32*
X153000000Y-80200000D03*
X153000000Y-80700000D03*
X153000000Y-81200000D03*
X154400000Y-81200000D03*
X154400000Y-80700000D03*
X154400000Y-80200000D03*
D24*
X161140000Y-89100000D03*
X161140000Y-88600000D03*
X161140000Y-88100000D03*
X160460000Y-88100000D03*
X160460000Y-88600000D03*
X160460000Y-89100000D03*
D25*
X170750000Y-92200000D03*
X169850000Y-92200000D03*
D10*
X157050000Y-82100000D03*
X157950000Y-82100000D03*
D20*
X164400000Y-82850000D03*
X164400000Y-81950000D03*
D11*
X158000000Y-80250000D03*
X158000000Y-81150000D03*
X163500000Y-80250000D03*
X163500000Y-81150000D03*
X167400000Y-81800000D03*
X167400000Y-82700000D03*
D10*
X162150000Y-92300000D03*
X163050000Y-92300000D03*
X178450000Y-89700000D03*
X179350000Y-89700000D03*
D33*
X161565000Y-81175000D03*
X161965000Y-81175000D03*
X162365000Y-81175000D03*
X162365000Y-80225000D03*
X161965000Y-80225000D03*
X161565000Y-80225000D03*
D34*
X161965000Y-80700000D03*
D11*
X160700000Y-80200000D03*
X160700000Y-81100000D03*
D20*
X159200000Y-84000000D03*
X159200000Y-83100000D03*
D25*
X183300000Y-91750000D03*
X184200000Y-91750000D03*
D20*
X160050000Y-83000000D03*
X160050000Y-82100000D03*
D24*
X163140000Y-88100000D03*
X163140000Y-87600000D03*
X163140000Y-87100000D03*
X162460000Y-87100000D03*
X162460000Y-87600000D03*
X162460000Y-88100000D03*
D35*
X179525000Y-92225000D03*
X178675000Y-92225000D03*
X178675000Y-90775000D03*
X179525000Y-90775000D03*
D10*
X176750000Y-89500000D03*
X177650000Y-89500000D03*
X157050000Y-83000000D03*
X157950000Y-83000000D03*
D36*
X178350000Y-83350000D03*
X177850000Y-83350000D03*
X177350000Y-83350000D03*
X176850000Y-83350000D03*
X176850000Y-86050000D03*
X177350000Y-86050000D03*
X177850000Y-86050000D03*
X178350000Y-86050000D03*
D37*
X177600000Y-84700000D03*
D11*
X157100000Y-80250000D03*
X157100000Y-81150000D03*
D20*
X159400000Y-86950000D03*
X159400000Y-86050000D03*
D38*
X178800000Y-88800000D03*
X179300000Y-88800000D03*
X179800000Y-88800000D03*
X179800000Y-87400000D03*
X179300000Y-87400000D03*
X178800000Y-87400000D03*
D25*
X152050000Y-82100000D03*
X151150000Y-82100000D03*
D10*
X164150000Y-90600000D03*
X165050000Y-90600000D03*
D11*
X149500000Y-80350000D03*
X149500000Y-81250000D03*
D33*
X159050000Y-81175000D03*
X159450000Y-81175000D03*
X159850000Y-81175000D03*
X159850000Y-80225000D03*
X159450000Y-80225000D03*
X159050000Y-80225000D03*
D34*
X159450000Y-80700000D03*
D24*
X161140000Y-91600000D03*
X161140000Y-91100000D03*
X161140000Y-90600000D03*
X160460000Y-90600000D03*
X160460000Y-91100000D03*
X160460000Y-91600000D03*
D25*
X174150000Y-92100000D03*
X173250000Y-92100000D03*
X177650000Y-91500000D03*
X176750000Y-91500000D03*
D24*
X163140000Y-85600000D03*
X163140000Y-85100000D03*
X163140000Y-84600000D03*
X162460000Y-84600000D03*
X162460000Y-85100000D03*
X162460000Y-85600000D03*
D20*
X167600000Y-92350000D03*
X167600000Y-91450000D03*
D25*
X167350000Y-88500000D03*
X166450000Y-88500000D03*
X162100000Y-83050000D03*
X161200000Y-83050000D03*
D10*
X176750000Y-87200000D03*
X177650000Y-87200000D03*
D25*
X157750000Y-87100000D03*
X156850000Y-87100000D03*
D10*
X164150000Y-88200000D03*
X165050000Y-88200000D03*
X176750000Y-90600000D03*
X177650000Y-90600000D03*
D20*
X179300000Y-86250000D03*
X179300000Y-85350000D03*
D25*
X160900000Y-84350000D03*
X160000000Y-84350000D03*
D10*
X156850000Y-84200000D03*
X157750000Y-84200000D03*
X153150000Y-82100000D03*
X154050000Y-82100000D03*
D20*
X165800000Y-92350000D03*
X165800000Y-91450000D03*
D39*
X179437500Y-81850000D03*
X177862500Y-81850000D03*
D25*
X175950000Y-92100000D03*
X175050000Y-92100000D03*
D24*
X163140000Y-90600000D03*
X163140000Y-90100000D03*
X163140000Y-89600000D03*
X162460000Y-89600000D03*
X162460000Y-90100000D03*
X162460000Y-90600000D03*
D11*
X151900000Y-80250000D03*
X151900000Y-81150000D03*
D25*
X167350000Y-87600000D03*
X166450000Y-87600000D03*
D40*
X165950000Y-83900000D03*
X165950000Y-85700000D03*
X167450000Y-85675000D03*
X167450000Y-83925000D03*
D25*
X182200000Y-91750000D03*
X181300000Y-91750000D03*
D41*
X175080000Y-80000000D03*
X169920000Y-80000000D03*
X169920000Y-82000000D03*
X175080000Y-82000000D03*
D20*
X166700000Y-92350000D03*
X166700000Y-91450000D03*
D11*
X158250000Y-85100000D03*
X158250000Y-86000000D03*
D10*
X176750000Y-88100000D03*
X177650000Y-88100000D03*
D32*
X165200000Y-81750000D03*
X165200000Y-82250000D03*
X165200000Y-82750000D03*
X166600000Y-82750000D03*
X166600000Y-82250000D03*
X166600000Y-81750000D03*
D25*
X150300000Y-82100000D03*
X149400000Y-82100000D03*
D42*
X148500000Y-80000000D03*
X148500000Y-81500000D03*
X148500000Y-83000000D03*
X148500000Y-84500000D03*
X148500000Y-86000000D03*
X148500000Y-87500000D03*
X148500000Y-89000000D03*
X148500000Y-90500000D03*
X148500000Y-92000000D03*
X179000000Y-79000000D03*
X180500000Y-79000000D03*
X182000000Y-79000000D03*
X182000000Y-93000000D03*
X180500000Y-93000000D03*
D43*
X155640000Y-79784000D03*
X155640000Y-81816000D03*
X150560000Y-80800000D03*
M02*
