G04 #@! TF.GenerationSoftware,KiCad,Pcbnew,(6.0.2)*
G04 #@! TF.CreationDate,2022-03-09T14:23:31+01:00*
G04 #@! TF.ProjectId,rs-probe,72732d70-726f-4626-952e-6b696361645f,rev?*
G04 #@! TF.SameCoordinates,Original*
G04 #@! TF.FileFunction,Glue,Top*
G04 #@! TF.FilePolarity,Positive*
%FSLAX46Y46*%
G04 Gerber Fmt 4.6, Leading zero omitted, Abs format (unit mm)*
G04 Created by KiCad (PCBNEW (6.0.2)) date 2022-03-09 14:23:31*
%MOMM*%
%LPD*%
G01*
G04 APERTURE LIST*
%ADD10C,0.100000*%
G04 APERTURE END LIST*
D10*
X182050000Y-79800000D02*
X180200000Y-79800000D01*
X180200000Y-79800000D02*
X180200000Y-80800000D01*
X180200000Y-80800000D02*
X182050000Y-80800000D01*
X182050000Y-80800000D02*
X182050000Y-79800000D01*
G36*
X182050000Y-79800000D02*
G01*
X180200000Y-79800000D01*
X180200000Y-80800000D01*
X182050000Y-80800000D01*
X182050000Y-79800000D01*
G37*
X180200000Y-92300000D02*
X178300000Y-92300000D01*
X178300000Y-92300000D02*
X178300000Y-91800000D01*
X178300000Y-91800000D02*
X180200000Y-91800000D01*
X180200000Y-91800000D02*
X180200000Y-92300000D01*
G36*
X180200000Y-92300000D02*
G01*
X178300000Y-92300000D01*
X178300000Y-91800000D01*
X180200000Y-91800000D01*
X180200000Y-92300000D01*
G37*
X178300000Y-79800000D02*
X180200000Y-79800000D01*
X180200000Y-79800000D02*
X180200000Y-91800000D01*
X180200000Y-91800000D02*
X178300000Y-91800000D01*
X178300000Y-91800000D02*
X178300000Y-79800000D01*
G36*
X178300000Y-79800000D02*
G01*
X180200000Y-79800000D01*
X180200000Y-91800000D01*
X178300000Y-91800000D01*
X178300000Y-79800000D01*
G37*
X178300000Y-83000000D02*
X169000000Y-83000000D01*
X169000000Y-83000000D02*
X169000000Y-92800000D01*
X169000000Y-92800000D02*
X178300000Y-92800000D01*
X178300000Y-92800000D02*
X178300000Y-83000000D01*
G36*
X178300000Y-83000000D02*
G01*
X169000000Y-83000000D01*
X169000000Y-92800000D01*
X178300000Y-92800000D01*
X178300000Y-83000000D01*
G37*
X169000000Y-79300000D02*
X156300000Y-79300000D01*
X156300000Y-79300000D02*
X156300000Y-92800000D01*
X156300000Y-92800000D02*
X169000000Y-92800000D01*
X169000000Y-92800000D02*
X169000000Y-79300000D01*
G36*
X169000000Y-79300000D02*
G01*
X156300000Y-79300000D01*
X156300000Y-92800000D01*
X169000000Y-92800000D01*
X169000000Y-79300000D01*
G37*
X178300000Y-79400000D02*
X176100000Y-79400000D01*
X176100000Y-79400000D02*
X176100000Y-83000000D01*
X176100000Y-83000000D02*
X178300000Y-83000000D01*
X178300000Y-83000000D02*
X178300000Y-79400000D01*
G36*
X178300000Y-79400000D02*
G01*
X176100000Y-79400000D01*
X176100000Y-83000000D01*
X178300000Y-83000000D01*
X178300000Y-79400000D01*
G37*
X184800000Y-91200000D02*
X180200000Y-91200000D01*
X180200000Y-91200000D02*
X180200000Y-92300000D01*
X180200000Y-92300000D02*
X184800000Y-92300000D01*
X184800000Y-92300000D02*
X184800000Y-91200000D01*
G36*
X184800000Y-91200000D02*
G01*
X180200000Y-91200000D01*
X180200000Y-92300000D01*
X184800000Y-92300000D01*
X184800000Y-91200000D01*
G37*
X151300000Y-79400000D02*
X154900000Y-79400000D01*
X154900000Y-79400000D02*
X154900000Y-82800000D01*
X154900000Y-82800000D02*
X151300000Y-82800000D01*
X151300000Y-82800000D02*
X151300000Y-79400000D01*
G36*
X151300000Y-79400000D02*
G01*
X154900000Y-79400000D01*
X154900000Y-82800000D01*
X151300000Y-82800000D01*
X151300000Y-79400000D01*
G37*
X149950000Y-80000000D02*
X149150000Y-80000000D01*
X149150000Y-80000000D02*
X149150000Y-81550000D01*
X149150000Y-81550000D02*
X149950000Y-81550000D01*
X149950000Y-81550000D02*
X149950000Y-80000000D01*
G36*
X149950000Y-80000000D02*
G01*
X149150000Y-80000000D01*
X149150000Y-81550000D01*
X149950000Y-81550000D01*
X149950000Y-80000000D01*
G37*
X151300000Y-82800000D02*
X149150000Y-82800000D01*
X149150000Y-82800000D02*
X149150000Y-81550000D01*
X149150000Y-81550000D02*
X151300000Y-81550000D01*
X151300000Y-81550000D02*
X151300000Y-82800000D01*
G36*
X151300000Y-82800000D02*
G01*
X149150000Y-82800000D01*
X149150000Y-81550000D01*
X151300000Y-81550000D01*
X151300000Y-82800000D01*
G37*
X178300000Y-92300000D02*
X179900000Y-92300000D01*
X179900000Y-92300000D02*
X179900000Y-92800000D01*
X179900000Y-92800000D02*
X178300000Y-92800000D01*
X178300000Y-92800000D02*
X178300000Y-92300000D01*
G36*
X178300000Y-92300000D02*
G01*
X179900000Y-92300000D01*
X179900000Y-92800000D01*
X178300000Y-92800000D01*
X178300000Y-92300000D01*
G37*
M02*
