G04 #@! TF.GenerationSoftware,KiCad,Pcbnew,(6.0.2)*
G04 #@! TF.CreationDate,2022-03-09T14:23:30+01:00*
G04 #@! TF.ProjectId,rs-probe,72732d70-726f-4626-952e-6b696361645f,rev?*
G04 #@! TF.SameCoordinates,Original*
G04 #@! TF.FileFunction,Copper,L1,Top*
G04 #@! TF.FilePolarity,Positive*
%FSLAX46Y46*%
G04 Gerber Fmt 4.6, Leading zero omitted, Abs format (unit mm)*
G04 Created by KiCad (PCBNEW (6.0.2)) date 2022-03-09 14:23:30*
%MOMM*%
%LPD*%
G01*
G04 APERTURE LIST*
G04 Aperture macros list*
%AMRoundRect*
0 Rectangle with rounded corners*
0 $1 Rounding radius*
0 $2 $3 $4 $5 $6 $7 $8 $9 X,Y pos of 4 corners*
0 Add a 4 corners polygon primitive as box body*
4,1,4,$2,$3,$4,$5,$6,$7,$8,$9,$2,$3,0*
0 Add four circle primitives for the rounded corners*
1,1,$1+$1,$2,$3*
1,1,$1+$1,$4,$5*
1,1,$1+$1,$6,$7*
1,1,$1+$1,$8,$9*
0 Add four rect primitives between the rounded corners*
20,1,$1+$1,$2,$3,$4,$5,0*
20,1,$1+$1,$4,$5,$6,$7,0*
20,1,$1+$1,$6,$7,$8,$9,0*
20,1,$1+$1,$8,$9,$2,$3,0*%
%AMFreePoly0*
4,1,6,0.175000,-0.100000,-0.225000,-0.100000,-0.225000,-0.025000,-0.050000,0.150000,0.175000,0.150000,0.175000,-0.100000,0.175000,-0.100000,$1*%
%AMFreePoly1*
4,1,6,0.225000,-0.025000,0.225000,-0.100000,-0.175000,-0.100000,-0.175000,0.150000,0.050000,0.150000,0.225000,-0.025000,0.225000,-0.025000,$1*%
G04 Aperture macros list end*
G04 #@! TA.AperFunction,SMDPad,CuDef*
%ADD10RoundRect,0.137500X-0.137500X-0.137500X0.137500X-0.137500X0.137500X0.137500X-0.137500X0.137500X0*%
G04 #@! TD*
G04 #@! TA.AperFunction,SMDPad,CuDef*
%ADD11RoundRect,0.137500X-0.137500X0.137500X-0.137500X-0.137500X0.137500X-0.137500X0.137500X0.137500X0*%
G04 #@! TD*
G04 #@! TA.AperFunction,SMDPad,CuDef*
%ADD12RoundRect,0.185000X-1.015000X-0.185000X1.015000X-0.185000X1.015000X0.185000X-1.015000X0.185000X0*%
G04 #@! TD*
G04 #@! TA.AperFunction,SMDPad,CuDef*
%ADD13RoundRect,0.150000X0.575000X-0.150000X0.575000X0.150000X-0.575000X0.150000X-0.575000X-0.150000X0*%
G04 #@! TD*
G04 #@! TA.AperFunction,SMDPad,CuDef*
%ADD14O,1.450000X0.300000*%
G04 #@! TD*
G04 #@! TA.AperFunction,ComponentPad*
%ADD15O,2.100000X1.000000*%
G04 #@! TD*
G04 #@! TA.AperFunction,ComponentPad*
%ADD16O,1.600000X1.000000*%
G04 #@! TD*
G04 #@! TA.AperFunction,SMDPad,CuDef*
%ADD17RoundRect,0.125000X0.200000X0.000000X-0.200000X0.000000X-0.200000X0.000000X0.200000X0.000000X0*%
G04 #@! TD*
G04 #@! TA.AperFunction,SMDPad,CuDef*
%ADD18RoundRect,0.125000X0.125000X1.925000X-0.125000X1.925000X-0.125000X-1.925000X0.125000X-1.925000X0*%
G04 #@! TD*
G04 #@! TA.AperFunction,SMDPad,CuDef*
%ADD19RoundRect,0.137500X0.137500X-0.137500X0.137500X0.137500X-0.137500X0.137500X-0.137500X-0.137500X0*%
G04 #@! TD*
G04 #@! TA.AperFunction,SMDPad,CuDef*
%ADD20RoundRect,0.050000X-0.050000X0.387500X-0.050000X-0.387500X0.050000X-0.387500X0.050000X0.387500X0*%
G04 #@! TD*
G04 #@! TA.AperFunction,SMDPad,CuDef*
%ADD21RoundRect,0.050000X-0.387500X0.050000X-0.387500X-0.050000X0.387500X-0.050000X0.387500X0.050000X0*%
G04 #@! TD*
G04 #@! TA.AperFunction,ComponentPad*
%ADD22C,0.600000*%
G04 #@! TD*
G04 #@! TA.AperFunction,SMDPad,CuDef*
%ADD23RoundRect,0.144000X-1.456000X1.456000X-1.456000X-1.456000X1.456000X-1.456000X1.456000X1.456000X0*%
G04 #@! TD*
G04 #@! TA.AperFunction,SMDPad,CuDef*
%ADD24R,0.330000X0.270000*%
G04 #@! TD*
G04 #@! TA.AperFunction,SMDPad,CuDef*
%ADD25RoundRect,0.137500X0.137500X0.137500X-0.137500X0.137500X-0.137500X-0.137500X0.137500X-0.137500X0*%
G04 #@! TD*
G04 #@! TA.AperFunction,SMDPad,CuDef*
%ADD26R,1.100000X1.100000*%
G04 #@! TD*
G04 #@! TA.AperFunction,SMDPad,CuDef*
%ADD27FreePoly0,270.000000*%
G04 #@! TD*
G04 #@! TA.AperFunction,SMDPad,CuDef*
%ADD28FreePoly1,90.000000*%
G04 #@! TD*
G04 #@! TA.AperFunction,SMDPad,CuDef*
%ADD29FreePoly0,90.000000*%
G04 #@! TD*
G04 #@! TA.AperFunction,SMDPad,CuDef*
%ADD30FreePoly1,270.000000*%
G04 #@! TD*
G04 #@! TA.AperFunction,SMDPad,CuDef*
%ADD31RoundRect,0.120000X0.000000X-0.169706X0.169706X0.000000X0.000000X0.169706X-0.169706X0.000000X0*%
G04 #@! TD*
G04 #@! TA.AperFunction,SMDPad,CuDef*
%ADD32RoundRect,0.075000X-0.150000X-0.075000X0.150000X-0.075000X0.150000X0.075000X-0.150000X0.075000X0*%
G04 #@! TD*
G04 #@! TA.AperFunction,SMDPad,CuDef*
%ADD33RoundRect,0.062500X0.087500X-0.062500X0.087500X0.062500X-0.087500X0.062500X-0.087500X-0.062500X0*%
G04 #@! TD*
G04 #@! TA.AperFunction,SMDPad,CuDef*
%ADD34R,0.940000X0.300000*%
G04 #@! TD*
G04 #@! TA.AperFunction,SMDPad,CuDef*
%ADD35R,0.650000X0.850000*%
G04 #@! TD*
G04 #@! TA.AperFunction,SMDPad,CuDef*
%ADD36O,0.250000X0.600000*%
G04 #@! TD*
G04 #@! TA.AperFunction,SMDPad,CuDef*
%ADD37R,1.600000X0.200000*%
G04 #@! TD*
G04 #@! TA.AperFunction,SMDPad,CuDef*
%ADD38RoundRect,0.075000X0.075000X-0.150000X0.075000X0.150000X-0.075000X0.150000X-0.075000X-0.150000X0*%
G04 #@! TD*
G04 #@! TA.AperFunction,SMDPad,CuDef*
%ADD39RoundRect,0.218750X0.218750X0.256250X-0.218750X0.256250X-0.218750X-0.256250X0.218750X-0.256250X0*%
G04 #@! TD*
G04 #@! TA.AperFunction,SMDPad,CuDef*
%ADD40RoundRect,0.175000X-0.175000X0.275000X-0.175000X-0.275000X0.175000X-0.275000X0.175000X0.275000X0*%
G04 #@! TD*
G04 #@! TA.AperFunction,SMDPad,CuDef*
%ADD41R,1.450000X0.700000*%
G04 #@! TD*
G04 #@! TA.AperFunction,ComponentPad*
%ADD42C,1.100000*%
G04 #@! TD*
G04 #@! TA.AperFunction,ViaPad*
%ADD43C,0.450000*%
G04 #@! TD*
G04 #@! TA.AperFunction,Conductor*
%ADD44C,0.100000*%
G04 #@! TD*
G04 #@! TA.AperFunction,Conductor*
%ADD45C,0.500000*%
G04 #@! TD*
G04 #@! TA.AperFunction,Conductor*
%ADD46C,0.700000*%
G04 #@! TD*
G04 #@! TA.AperFunction,Conductor*
%ADD47C,0.200000*%
G04 #@! TD*
G04 #@! TA.AperFunction,Conductor*
%ADD48C,0.300000*%
G04 #@! TD*
G04 #@! TA.AperFunction,Conductor*
%ADD49C,0.800000*%
G04 #@! TD*
G04 #@! TA.AperFunction,Conductor*
%ADD50C,0.150000*%
G04 #@! TD*
G04 #@! TA.AperFunction,Conductor*
%ADD51C,0.400000*%
G04 #@! TD*
G04 #@! TA.AperFunction,Conductor*
%ADD52C,0.350000*%
G04 #@! TD*
G04 #@! TA.AperFunction,Conductor*
%ADD53C,0.600000*%
G04 #@! TD*
G04 APERTURE END LIST*
D10*
X179650000Y-80700000D03*
X178750000Y-80700000D03*
X181550000Y-80250000D03*
X180650000Y-80250000D03*
D11*
X176900000Y-80750000D03*
X176900000Y-79850000D03*
X177800000Y-80750000D03*
X177800000Y-79850000D03*
D12*
X150850000Y-83690000D03*
X154750000Y-83690000D03*
X150850000Y-84960000D03*
X154750000Y-84960000D03*
X150850000Y-86230000D03*
X154750000Y-86230000D03*
X150850000Y-87500000D03*
X154750000Y-87500000D03*
X150850000Y-88770000D03*
X154750000Y-88770000D03*
X150850000Y-90040000D03*
X154750000Y-90040000D03*
X150850000Y-91310000D03*
X154750000Y-91310000D03*
D13*
X181455000Y-89250000D03*
X181455000Y-88450000D03*
D14*
X181455000Y-87250000D03*
X181455000Y-86250000D03*
X181455000Y-85750000D03*
X181455000Y-84750000D03*
D13*
X181455000Y-83550000D03*
X181455000Y-82750000D03*
X181455000Y-82750000D03*
X181455000Y-83550000D03*
D14*
X181455000Y-84250000D03*
X181455000Y-85250000D03*
X181455000Y-86750000D03*
X181455000Y-87750000D03*
D13*
X181455000Y-88450000D03*
X181455000Y-89250000D03*
D15*
X182370000Y-90320000D03*
X182370000Y-81680000D03*
D16*
X186550000Y-90320000D03*
X186550000Y-81680000D03*
D17*
X158825000Y-91550000D03*
X158825000Y-91050000D03*
X158825000Y-90550000D03*
X158825000Y-90050000D03*
X158825000Y-89550000D03*
X158825000Y-89050000D03*
X158825000Y-88550000D03*
X158825000Y-88050000D03*
X157175000Y-88050000D03*
X157175000Y-88550000D03*
X157175000Y-89050000D03*
X157175000Y-89550000D03*
X157175000Y-90050000D03*
X157175000Y-90550000D03*
X157175000Y-91050000D03*
X157175000Y-91550000D03*
D18*
X158000000Y-89800000D03*
D10*
X156575000Y-85100000D03*
X157475000Y-85100000D03*
D19*
X179300000Y-84050000D03*
X179300000Y-83150000D03*
D20*
X174600000Y-83962500D03*
X174200000Y-83962500D03*
X173800000Y-83962500D03*
X173400000Y-83962500D03*
X173000000Y-83962500D03*
X172600000Y-83962500D03*
X172200000Y-83962500D03*
X171800000Y-83962500D03*
X171400000Y-83962500D03*
X171000000Y-83962500D03*
X170600000Y-83962500D03*
X170200000Y-83962500D03*
X169800000Y-83962500D03*
X169400000Y-83962500D03*
D21*
X168562500Y-84800000D03*
X168562500Y-85200000D03*
X168562500Y-85600000D03*
X168562500Y-86000000D03*
X168562500Y-86400000D03*
X168562500Y-86800000D03*
X168562500Y-87200000D03*
X168562500Y-87600000D03*
X168562500Y-88000000D03*
X168562500Y-88400000D03*
X168562500Y-88800000D03*
X168562500Y-89200000D03*
X168562500Y-89600000D03*
X168562500Y-90000000D03*
D20*
X169400000Y-90837500D03*
X169800000Y-90837500D03*
X170200000Y-90837500D03*
X170600000Y-90837500D03*
X171000000Y-90837500D03*
X171400000Y-90837500D03*
X171800000Y-90837500D03*
X172200000Y-90837500D03*
X172600000Y-90837500D03*
X173000000Y-90837500D03*
X173400000Y-90837500D03*
X173800000Y-90837500D03*
X174200000Y-90837500D03*
X174600000Y-90837500D03*
D21*
X175437500Y-90000000D03*
X175437500Y-89600000D03*
X175437500Y-89200000D03*
X175437500Y-88800000D03*
X175437500Y-88400000D03*
X175437500Y-88000000D03*
X175437500Y-87600000D03*
X175437500Y-87200000D03*
X175437500Y-86800000D03*
X175437500Y-86400000D03*
X175437500Y-86000000D03*
X175437500Y-85600000D03*
X175437500Y-85200000D03*
X175437500Y-84800000D03*
D22*
X170725000Y-88675000D03*
X173275000Y-87400000D03*
X172000000Y-88675000D03*
D23*
X172000000Y-87400000D03*
D22*
X170725000Y-87400000D03*
X172000000Y-87400000D03*
X173275000Y-88675000D03*
X173275000Y-86125000D03*
X172000000Y-86125000D03*
X170725000Y-86125000D03*
D11*
X165000000Y-83650000D03*
X165000000Y-84550000D03*
D24*
X161140000Y-86600000D03*
X161140000Y-86100000D03*
X161140000Y-85600000D03*
X160460000Y-85600000D03*
X160460000Y-86100000D03*
X160460000Y-86600000D03*
D25*
X172450000Y-92200000D03*
X171550000Y-92200000D03*
D26*
X164800000Y-80200000D03*
X167600000Y-80200000D03*
D10*
X162850000Y-83650000D03*
X163750000Y-83650000D03*
D19*
X168500000Y-82950000D03*
X168500000Y-82050000D03*
D10*
X164150000Y-85800000D03*
X165050000Y-85800000D03*
D19*
X164900000Y-92350000D03*
X164900000Y-91450000D03*
D25*
X157475000Y-86000000D03*
X156575000Y-86000000D03*
D10*
X164150000Y-89200000D03*
X165050000Y-89200000D03*
D25*
X162100000Y-82200000D03*
X161200000Y-82200000D03*
X166950000Y-86700000D03*
X166050000Y-86700000D03*
D27*
X162850000Y-82875000D03*
D28*
X163550000Y-82875000D03*
D29*
X163550000Y-81925000D03*
D30*
X162850000Y-81925000D03*
D31*
X163200000Y-82400000D03*
D32*
X153000000Y-80200000D03*
X153000000Y-80700000D03*
X153000000Y-81200000D03*
X154400000Y-81200000D03*
X154400000Y-80700000D03*
X154400000Y-80200000D03*
D24*
X161140000Y-89100000D03*
X161140000Y-88600000D03*
X161140000Y-88100000D03*
X160460000Y-88100000D03*
X160460000Y-88600000D03*
X160460000Y-89100000D03*
D25*
X170750000Y-92200000D03*
X169850000Y-92200000D03*
D10*
X157050000Y-82100000D03*
X157950000Y-82100000D03*
D19*
X164400000Y-82850000D03*
X164400000Y-81950000D03*
D11*
X158000000Y-80250000D03*
X158000000Y-81150000D03*
X163500000Y-80250000D03*
X163500000Y-81150000D03*
X167400000Y-81800000D03*
X167400000Y-82700000D03*
D10*
X162150000Y-92300000D03*
X163050000Y-92300000D03*
X178450000Y-89700000D03*
X179350000Y-89700000D03*
D33*
X161565000Y-81175000D03*
X161965000Y-81175000D03*
X162365000Y-81175000D03*
X162365000Y-80225000D03*
X161965000Y-80225000D03*
X161565000Y-80225000D03*
D34*
X161965000Y-80700000D03*
D11*
X160700000Y-80200000D03*
X160700000Y-81100000D03*
D19*
X159200000Y-84000000D03*
X159200000Y-83100000D03*
D25*
X183300000Y-91750000D03*
X184200000Y-91750000D03*
D19*
X160050000Y-83000000D03*
X160050000Y-82100000D03*
D24*
X163140000Y-88100000D03*
X163140000Y-87600000D03*
X163140000Y-87100000D03*
X162460000Y-87100000D03*
X162460000Y-87600000D03*
X162460000Y-88100000D03*
D35*
X179525000Y-92225000D03*
X178675000Y-92225000D03*
X178675000Y-90775000D03*
X179525000Y-90775000D03*
D10*
X176750000Y-89500000D03*
X177650000Y-89500000D03*
X157050000Y-83000000D03*
X157950000Y-83000000D03*
D36*
X178350000Y-83350000D03*
X177850000Y-83350000D03*
X177350000Y-83350000D03*
X176850000Y-83350000D03*
X176850000Y-86050000D03*
X177350000Y-86050000D03*
X177850000Y-86050000D03*
X178350000Y-86050000D03*
D37*
X177600000Y-84700000D03*
D11*
X157100000Y-80250000D03*
X157100000Y-81150000D03*
D19*
X159400000Y-86950000D03*
X159400000Y-86050000D03*
D38*
X178800000Y-88800000D03*
X179300000Y-88800000D03*
X179800000Y-88800000D03*
X179800000Y-87400000D03*
X179300000Y-87400000D03*
X178800000Y-87400000D03*
D25*
X152050000Y-82100000D03*
X151150000Y-82100000D03*
D10*
X164150000Y-90600000D03*
X165050000Y-90600000D03*
D11*
X149500000Y-80350000D03*
X149500000Y-81250000D03*
D33*
X159050000Y-81175000D03*
X159450000Y-81175000D03*
X159850000Y-81175000D03*
X159850000Y-80225000D03*
X159450000Y-80225000D03*
X159050000Y-80225000D03*
D34*
X159450000Y-80700000D03*
D24*
X161140000Y-91600000D03*
X161140000Y-91100000D03*
X161140000Y-90600000D03*
X160460000Y-90600000D03*
X160460000Y-91100000D03*
X160460000Y-91600000D03*
D25*
X174150000Y-92100000D03*
X173250000Y-92100000D03*
X177650000Y-91500000D03*
X176750000Y-91500000D03*
D24*
X163140000Y-85600000D03*
X163140000Y-85100000D03*
X163140000Y-84600000D03*
X162460000Y-84600000D03*
X162460000Y-85100000D03*
X162460000Y-85600000D03*
D19*
X167600000Y-92350000D03*
X167600000Y-91450000D03*
D25*
X167350000Y-88500000D03*
X166450000Y-88500000D03*
X162100000Y-83050000D03*
X161200000Y-83050000D03*
D10*
X176750000Y-87200000D03*
X177650000Y-87200000D03*
D25*
X157750000Y-87100000D03*
X156850000Y-87100000D03*
D10*
X164150000Y-88200000D03*
X165050000Y-88200000D03*
X176750000Y-90600000D03*
X177650000Y-90600000D03*
D19*
X179300000Y-86250000D03*
X179300000Y-85350000D03*
D25*
X160900000Y-84350000D03*
X160000000Y-84350000D03*
D10*
X156850000Y-84200000D03*
X157750000Y-84200000D03*
X153150000Y-82100000D03*
X154050000Y-82100000D03*
D19*
X165800000Y-92350000D03*
X165800000Y-91450000D03*
D39*
X179437500Y-81850000D03*
X177862500Y-81850000D03*
D25*
X175950000Y-92100000D03*
X175050000Y-92100000D03*
D24*
X163140000Y-90600000D03*
X163140000Y-90100000D03*
X163140000Y-89600000D03*
X162460000Y-89600000D03*
X162460000Y-90100000D03*
X162460000Y-90600000D03*
D11*
X151900000Y-80250000D03*
X151900000Y-81150000D03*
D25*
X167350000Y-87600000D03*
X166450000Y-87600000D03*
D40*
X165950000Y-83900000D03*
X165950000Y-85700000D03*
X167450000Y-85675000D03*
X167450000Y-83925000D03*
D25*
X182200000Y-91750000D03*
X181300000Y-91750000D03*
D41*
X175080000Y-80000000D03*
X169920000Y-80000000D03*
X169920000Y-82000000D03*
X175080000Y-82000000D03*
D19*
X166700000Y-92350000D03*
X166700000Y-91450000D03*
D11*
X158250000Y-85100000D03*
X158250000Y-86000000D03*
D10*
X176750000Y-88100000D03*
X177650000Y-88100000D03*
D32*
X165200000Y-81750000D03*
X165200000Y-82250000D03*
X165200000Y-82750000D03*
X166600000Y-82750000D03*
X166600000Y-82250000D03*
X166600000Y-81750000D03*
D25*
X150300000Y-82100000D03*
X149400000Y-82100000D03*
D42*
X148500000Y-80000000D03*
X148500000Y-81500000D03*
X148500000Y-83000000D03*
X148500000Y-84500000D03*
X148500000Y-86000000D03*
X148500000Y-87500000D03*
X148500000Y-89000000D03*
X148500000Y-90500000D03*
X148500000Y-92000000D03*
X179000000Y-79000000D03*
X180500000Y-79000000D03*
X182000000Y-79000000D03*
X182000000Y-93000000D03*
X180500000Y-93000000D03*
D43*
X175100000Y-83050000D03*
X180500000Y-81200000D03*
X165750000Y-80850000D03*
X159400000Y-82300000D03*
X156500000Y-81400000D03*
X158300000Y-87400000D03*
X163700000Y-85100000D03*
X184100000Y-92600000D03*
X165200000Y-81174500D03*
X162900000Y-80274500D03*
X154350000Y-79500000D03*
X162350000Y-81650000D03*
X180900000Y-82200000D03*
X183000000Y-79400000D03*
X167100000Y-90900000D03*
X150500000Y-92500000D03*
X163100000Y-91500000D03*
X161800000Y-89200000D03*
X165000000Y-85200000D03*
X177600000Y-85150000D03*
X178200000Y-86800000D03*
X151800000Y-92600000D03*
X163700000Y-87600000D03*
X161700000Y-86500000D03*
X168871502Y-81550000D03*
X149800000Y-79400000D03*
X180500000Y-82900000D03*
X180300000Y-89100000D03*
X182600000Y-85500000D03*
X188100000Y-90300000D03*
X169300000Y-92200000D03*
X166900000Y-89000000D03*
X180800000Y-89900000D03*
X159500000Y-85500000D03*
X177150000Y-84100000D03*
X149900000Y-87500000D03*
X165812878Y-87583254D03*
X175300000Y-90700000D03*
X158000000Y-89550000D03*
X163600000Y-90100000D03*
X164400000Y-83600000D03*
X177300000Y-90100000D03*
X165900000Y-84800000D03*
X165700000Y-90400000D03*
X178200000Y-87700000D03*
X179300000Y-84700000D03*
X157000000Y-92250000D03*
X180000000Y-89700000D03*
X151500000Y-79400000D03*
X149400000Y-92600000D03*
X156214812Y-84185188D03*
X185800000Y-92600000D03*
X188100000Y-81700000D03*
X165600000Y-89500000D03*
X152100000Y-87500000D03*
X152100000Y-86200000D03*
X150850000Y-86230000D03*
X165000000Y-87600000D03*
X185800000Y-79400000D03*
X180500000Y-92000000D03*
X160200000Y-80711694D03*
X161100000Y-89600000D03*
X171000000Y-84800000D03*
X169400000Y-89200000D03*
X178800000Y-85850000D03*
X161050000Y-92050011D03*
X162200000Y-84000000D03*
X169400000Y-87300000D03*
X164600000Y-90100000D03*
X180200000Y-90800000D03*
X176000000Y-91100000D03*
X178300000Y-88400000D03*
X164300000Y-85200000D03*
X175100000Y-84000000D03*
X164300000Y-87600000D03*
X152300000Y-79700000D03*
X161000000Y-87100000D03*
X161600000Y-83900000D03*
X171000000Y-90000000D03*
X180300000Y-87600000D03*
X180400000Y-83600000D03*
X152400000Y-89650000D03*
X151800000Y-91600000D03*
X158400000Y-84400000D03*
X158300000Y-86575000D03*
X154400000Y-90850000D03*
X169400000Y-88600000D03*
X167700000Y-89100000D03*
X153350000Y-86950000D03*
X158550000Y-92300000D03*
X153200000Y-84950000D03*
X155650000Y-92350000D03*
X153350000Y-85750000D03*
X151050000Y-81600000D03*
X153050000Y-88750000D03*
X158500000Y-83450000D03*
X152300000Y-85400000D03*
X152750000Y-92000000D03*
X158600011Y-81450000D03*
X159850000Y-81500000D03*
X171800000Y-83000000D03*
X157300000Y-86600000D03*
X173000000Y-90100000D03*
X173800000Y-83000000D03*
X174400000Y-83050000D03*
X165800000Y-80200000D03*
X164400000Y-81300000D03*
X171050000Y-82550000D03*
X172900000Y-83000000D03*
X152400000Y-80800000D03*
X159800000Y-83600000D03*
X158544288Y-82793290D03*
X164459519Y-92024500D03*
X162000000Y-88200000D03*
X160400000Y-89500000D03*
X161600000Y-92300000D03*
X162014812Y-90685188D03*
X160000000Y-87200000D03*
X163500000Y-89100000D03*
X162100000Y-85700000D03*
X160827782Y-83697812D03*
X162850000Y-81000000D03*
X168150000Y-81350000D03*
X174600000Y-89200000D03*
X169400000Y-88000000D03*
X174600000Y-87200000D03*
X170800000Y-89400000D03*
X167900000Y-90900000D03*
X172400000Y-91600000D03*
X159800000Y-91600000D03*
X172200000Y-90100000D03*
X161800000Y-90100000D03*
X169500000Y-84800000D03*
X159500000Y-90400000D03*
X159500000Y-89800000D03*
X170300000Y-84900000D03*
X165400000Y-86600000D03*
X168700000Y-84200000D03*
X168124500Y-84200000D03*
X163700000Y-84474500D03*
X171600000Y-91600000D03*
X159825500Y-89300000D03*
X161900000Y-87600000D03*
X171600000Y-90000000D03*
X160000000Y-86100000D03*
X170100000Y-89550000D03*
X162000000Y-85100000D03*
X169500000Y-89800000D03*
D44*
X175437500Y-86800000D02*
X176000000Y-86800000D01*
X176000000Y-86800000D02*
X176050000Y-86750000D01*
X176050000Y-86750000D02*
X177325000Y-86750000D01*
X177325000Y-86750000D02*
X177850000Y-86225000D01*
X177850000Y-86225000D02*
X177850000Y-86050000D01*
X177850000Y-83350000D02*
X177850000Y-83175000D01*
X177850000Y-83175000D02*
X177575000Y-82900000D01*
X177575000Y-82900000D02*
X177282164Y-82900000D01*
X177282164Y-82900000D02*
X177082645Y-82700481D01*
X176300000Y-84850000D02*
X175950000Y-85200000D01*
X175950000Y-85200000D02*
X175437500Y-85200000D01*
X177082645Y-82700481D02*
X176549519Y-82700481D01*
X176549519Y-82700481D02*
X176300000Y-82950000D01*
X176300000Y-82950000D02*
X176300000Y-84850000D01*
X178350000Y-83350000D02*
X178350000Y-83175000D01*
X177164328Y-82500000D02*
X176336221Y-82500000D01*
X176050000Y-82786221D02*
X176050000Y-84650000D01*
X176050000Y-84650000D02*
X175900000Y-84800000D01*
X178350000Y-83175000D02*
X177875481Y-82700481D01*
X175900000Y-84800000D02*
X175437500Y-84800000D01*
X177875481Y-82700481D02*
X177364809Y-82700481D01*
X177364809Y-82700481D02*
X177164328Y-82500000D01*
X176336221Y-82500000D02*
X176050000Y-82786221D01*
X175100000Y-83050000D02*
X174600000Y-82550000D01*
X174600000Y-82550000D02*
X172700000Y-82550000D01*
X172700000Y-82550000D02*
X172375000Y-82875000D01*
X172375000Y-82875000D02*
X172375000Y-83125000D01*
X172375000Y-83125000D02*
X172200000Y-83300000D01*
X172200000Y-83300000D02*
X172200000Y-83962500D01*
X171050000Y-82550000D02*
X171400000Y-82900000D01*
X171400000Y-82900000D02*
X171400000Y-83962500D01*
X169920000Y-82000000D02*
X170020000Y-81900000D01*
D45*
X170020000Y-81900000D02*
X174980000Y-81900000D01*
D44*
X174980000Y-81900000D02*
X175080000Y-82000000D01*
D46*
X169920000Y-80000000D02*
X175080000Y-80000000D01*
D44*
X165750000Y-80850000D02*
X166500000Y-80100000D01*
X166500000Y-79700000D02*
X166800000Y-79400000D01*
X166800000Y-79400000D02*
X176000000Y-79400000D01*
X166500000Y-80100000D02*
X166500000Y-79700000D01*
X176000000Y-79400000D02*
X176450000Y-79850000D01*
X176450000Y-79850000D02*
X176900000Y-79850000D01*
X167100000Y-91050000D02*
X167100000Y-90900000D01*
X166700000Y-91450000D02*
X167100000Y-91050000D01*
X169800000Y-90837500D02*
X169800000Y-90300000D01*
X169200000Y-90200000D02*
X169150000Y-90250000D01*
X169800000Y-90300000D02*
X169700000Y-90200000D01*
X163900000Y-89700000D02*
X163800000Y-89600000D01*
X169700000Y-90200000D02*
X169200000Y-90200000D01*
X169150000Y-90250000D02*
X166150000Y-90250000D01*
X165850000Y-89950000D02*
X165050000Y-89950000D01*
X165050000Y-89950000D02*
X164800000Y-89700000D01*
X166150000Y-90250000D02*
X165850000Y-89950000D01*
X164800000Y-89700000D02*
X163900000Y-89700000D01*
X163800000Y-89600000D02*
X163140000Y-89600000D01*
X163140000Y-87100000D02*
X163540000Y-86700000D01*
X163540000Y-86700000D02*
X164700000Y-86700000D01*
X164700000Y-86700000D02*
X165400000Y-87400000D01*
X165400000Y-87400000D02*
X165400000Y-87700000D01*
X166750000Y-89600000D02*
X168562500Y-89600000D01*
X165400000Y-87700000D02*
X165600000Y-87900000D01*
X165600000Y-87900000D02*
X165600000Y-88450000D01*
X165600000Y-88450000D02*
X166750000Y-89600000D01*
X158825000Y-89550000D02*
X159050000Y-89550000D01*
X159350000Y-89150000D02*
X160400000Y-88100000D01*
X159050000Y-89550000D02*
X159350000Y-89250000D01*
X159350000Y-89250000D02*
X159350000Y-89150000D01*
X160400000Y-88100000D02*
X160460000Y-88100000D01*
X159825500Y-89300000D02*
X159825500Y-89174500D01*
X160400000Y-88600000D02*
X160460000Y-88600000D01*
X159825500Y-89174500D02*
X160400000Y-88600000D01*
D47*
X165700000Y-90400000D02*
X165500000Y-90600000D01*
X165500000Y-90600000D02*
X165050000Y-90600000D01*
X164400000Y-83600000D02*
X164350000Y-83650000D01*
X164350000Y-83650000D02*
X163750000Y-83650000D01*
D48*
X152300000Y-85400000D02*
X152300000Y-84950000D01*
X152300000Y-84950000D02*
X152150000Y-84950000D01*
X152150000Y-84950000D02*
X152140000Y-84960000D01*
D44*
X182200000Y-91750000D02*
X182750000Y-91200000D01*
X183050000Y-87250000D02*
X181455000Y-87250000D01*
X182750000Y-91200000D02*
X183450000Y-91200000D01*
X183450000Y-91200000D02*
X183950000Y-90700000D01*
X183950000Y-90700000D02*
X183950000Y-88150000D01*
X183950000Y-88150000D02*
X183050000Y-87250000D01*
X181300000Y-91750000D02*
X180750000Y-91750000D01*
X180750000Y-91750000D02*
X180500000Y-92000000D01*
X184100000Y-92600000D02*
X183300000Y-91800000D01*
X183300000Y-91800000D02*
X183300000Y-91750000D01*
X184200000Y-91750000D02*
X184200000Y-85200000D01*
X184200000Y-85200000D02*
X183250000Y-84250000D01*
X183250000Y-84250000D02*
X181455000Y-84250000D01*
X179650000Y-80700000D02*
X180200000Y-80700000D01*
X180200000Y-80700000D02*
X180650000Y-80250000D01*
X181550000Y-80250000D02*
X180600000Y-81200000D01*
X180600000Y-81200000D02*
X180500000Y-81200000D01*
X160000000Y-84350000D02*
X160000000Y-83800000D01*
X160000000Y-83800000D02*
X159800000Y-83600000D01*
D45*
X162200000Y-84000000D02*
X162100000Y-83900000D01*
X162100000Y-83900000D02*
X161600000Y-83900000D01*
D48*
X162200000Y-84000000D02*
X162550000Y-83650000D01*
X162550000Y-83650000D02*
X162750000Y-83650000D01*
D44*
X172900000Y-83000000D02*
X173000000Y-83100000D01*
X173000000Y-83100000D02*
X173000000Y-83962500D01*
X173800000Y-83000000D02*
X173400000Y-83400000D01*
X173400000Y-83400000D02*
X173400000Y-83962500D01*
X174392837Y-83050000D02*
X173800000Y-83642837D01*
X174400000Y-83050000D02*
X174392837Y-83050000D01*
X173800000Y-83642837D02*
X173800000Y-83962500D01*
X177800000Y-79850000D02*
X178250000Y-79850000D01*
X178250000Y-79850000D02*
X178575000Y-80175000D01*
X178575000Y-80175000D02*
X179125000Y-80175000D01*
X179125000Y-80175000D02*
X179650000Y-80700000D01*
D45*
X165800000Y-80200000D02*
X164800000Y-80200000D01*
D44*
X176900000Y-80750000D02*
X176150000Y-80000000D01*
X176150000Y-80000000D02*
X175080000Y-80000000D01*
X177800000Y-80750000D02*
X176900000Y-80750000D01*
X177800000Y-80750000D02*
X177850000Y-80750000D01*
X178300000Y-81200000D02*
X179900000Y-81200000D01*
X177850000Y-80750000D02*
X178300000Y-81200000D01*
X179900000Y-81200000D02*
X180900000Y-82200000D01*
X178750000Y-80700000D02*
X178350000Y-80300000D01*
X178350000Y-80300000D02*
X177350000Y-80300000D01*
X177350000Y-80300000D02*
X176900000Y-79850000D01*
D49*
X177862500Y-81850000D02*
X177762980Y-81750480D01*
X177762980Y-81750480D02*
X176650480Y-81750480D01*
X176650480Y-81750480D02*
X175900000Y-81000000D01*
X175900000Y-81000000D02*
X169550000Y-81000000D01*
D44*
X179300000Y-83150000D02*
X178650962Y-82500962D01*
X177447454Y-82500962D02*
X177246492Y-82300000D01*
X178650962Y-82500962D02*
X177447454Y-82500962D01*
X177246492Y-82300000D02*
X175380000Y-82300000D01*
X175380000Y-82300000D02*
X175080000Y-82000000D01*
D50*
X165000000Y-85200000D02*
X164900000Y-85200000D01*
D47*
X177650000Y-89750000D02*
X177300000Y-90100000D01*
D44*
X151950000Y-80200000D02*
X151900000Y-80250000D01*
D47*
X164900350Y-85200000D02*
X165000000Y-85200000D01*
D44*
X158050000Y-87400000D02*
X158300000Y-87400000D01*
X152050000Y-82100000D02*
X151550000Y-82600000D01*
D47*
X159450000Y-80225000D02*
X159450000Y-80700000D01*
X179300000Y-85350000D02*
X179300000Y-84700000D01*
X163900000Y-83500000D02*
X163750000Y-83650000D01*
X165050000Y-87650000D02*
X165000000Y-87600000D01*
X177650000Y-89500000D02*
X177650000Y-89750000D01*
X163550000Y-83450000D02*
X163550000Y-82875000D01*
X166050000Y-86700000D02*
X166050000Y-85800000D01*
D48*
X159450000Y-80700000D02*
X158450000Y-80700000D01*
D47*
X177800000Y-88100000D02*
X178200000Y-87700000D01*
D48*
X160050000Y-82100000D02*
X160050000Y-81971061D01*
D47*
X177650000Y-90600000D02*
X177650000Y-90450000D01*
X177650000Y-90450000D02*
X177300000Y-90100000D01*
D48*
X161100000Y-80700000D02*
X160700000Y-81100000D01*
D47*
X166450000Y-88550000D02*
X166900000Y-89000000D01*
D48*
X160300000Y-80700000D02*
X160700000Y-81100000D01*
D47*
X161800000Y-89100000D02*
X161800000Y-89200000D01*
X163100000Y-92250000D02*
X163050000Y-92300000D01*
X161965000Y-80700000D02*
X162474500Y-80700000D01*
D44*
X171050000Y-92700000D02*
X171550000Y-92200000D01*
D48*
X158000000Y-81150000D02*
X157100000Y-80250000D01*
D47*
X163140000Y-90100000D02*
X163600000Y-90100000D01*
D44*
X170450000Y-86400000D02*
X170725000Y-86125000D01*
D47*
X163200000Y-82400000D02*
X162300000Y-82400000D01*
D50*
X164500000Y-84800000D02*
X164000000Y-84800000D01*
D48*
X181455000Y-89250000D02*
X181050000Y-89250000D01*
X180400000Y-88800000D02*
X180400000Y-89000000D01*
D51*
X157750000Y-92250000D02*
X158000000Y-92000000D01*
D47*
X161400000Y-91100000D02*
X161140000Y-91100000D01*
X163900000Y-82900000D02*
X163900000Y-83500000D01*
X165050000Y-89200000D02*
X165300000Y-89200000D01*
D44*
X153000000Y-80200000D02*
X151950000Y-80200000D01*
D48*
X180800000Y-89500000D02*
X180800000Y-89900000D01*
X153000000Y-79900000D02*
X153400000Y-79500000D01*
X159450000Y-80700000D02*
X160300000Y-80700000D01*
D47*
X162350000Y-81950000D02*
X162100000Y-82200000D01*
X161140000Y-86100000D02*
X161300000Y-86100000D01*
D48*
X160050000Y-82100000D02*
X159550000Y-82100000D01*
D44*
X164400000Y-82850000D02*
X163950000Y-82850000D01*
D47*
X180900000Y-82500000D02*
X180900000Y-82200000D01*
X181150000Y-82750000D02*
X180900000Y-82500000D01*
D48*
X159350000Y-82300000D02*
X159200000Y-82450000D01*
D47*
X159400000Y-85600000D02*
X159500000Y-85500000D01*
D48*
X153000000Y-80200000D02*
X153000000Y-79900000D01*
D47*
X180000000Y-89400000D02*
X180300000Y-89100000D01*
D48*
X161965000Y-80700000D02*
X161100000Y-80700000D01*
X179300000Y-88400000D02*
X179400000Y-88300000D01*
X180400000Y-88565006D02*
X180400000Y-88800000D01*
D47*
X163700000Y-87600000D02*
X163700000Y-87500000D01*
D44*
X150800000Y-82600000D02*
X150300000Y-82100000D01*
D48*
X160050000Y-81971061D02*
X160210531Y-81810530D01*
X180134994Y-88300000D02*
X180400000Y-88565006D01*
D47*
X161300000Y-88600000D02*
X161800000Y-89100000D01*
X161140000Y-88600000D02*
X161300000Y-88600000D01*
D44*
X169300000Y-92200000D02*
X169300000Y-92500000D01*
D47*
X177600000Y-84700000D02*
X178650000Y-84700000D01*
X161300000Y-86100000D02*
X161700000Y-86500000D01*
D48*
X156500000Y-80850000D02*
X157100000Y-80250000D01*
D47*
X180600000Y-89700000D02*
X180800000Y-89900000D01*
D48*
X158450000Y-80700000D02*
X158000000Y-81150000D01*
D47*
X163900000Y-81550000D02*
X163900000Y-82900000D01*
X180000000Y-89700000D02*
X180600000Y-89700000D01*
D44*
X156214812Y-84185188D02*
X156229624Y-84200000D01*
X157025000Y-85550000D02*
X156575000Y-86000000D01*
D47*
X160324511Y-81600000D02*
X160250481Y-81674030D01*
X161850000Y-91550000D02*
X161400000Y-91100000D01*
D44*
X165800000Y-91450000D02*
X166700000Y-91450000D01*
X169500000Y-92700000D02*
X171050000Y-92700000D01*
D48*
X156500000Y-81400000D02*
X156500000Y-80850000D01*
D44*
X151900000Y-80250000D02*
X151400000Y-80750000D01*
D48*
X179300000Y-88800000D02*
X179300000Y-88400000D01*
D51*
X158000000Y-87700000D02*
X158000000Y-89550000D01*
D47*
X166050000Y-85800000D02*
X165950000Y-85700000D01*
D44*
X156229624Y-84200000D02*
X156850000Y-84200000D01*
D47*
X162300000Y-82400000D02*
X162100000Y-82200000D01*
D48*
X160300000Y-80703226D02*
X160291532Y-80711694D01*
X180850000Y-89250000D02*
X181455000Y-89250000D01*
X153400000Y-79500000D02*
X154350000Y-79500000D01*
D44*
X149500000Y-79700000D02*
X149800000Y-79400000D01*
D47*
X161965000Y-80225000D02*
X161965000Y-80700000D01*
D44*
X151550000Y-82600000D02*
X150800000Y-82600000D01*
D47*
X163750000Y-83650000D02*
X163550000Y-83450000D01*
X180650000Y-82750000D02*
X181455000Y-82750000D01*
X180500000Y-82900000D02*
X180650000Y-82750000D01*
D44*
X156575000Y-84200000D02*
X156850000Y-84200000D01*
D47*
X180000000Y-89700000D02*
X180000000Y-89400000D01*
D48*
X152100000Y-86200000D02*
X152070000Y-86230000D01*
D44*
X163150000Y-91450000D02*
X163100000Y-91500000D01*
D47*
X159400000Y-86050000D02*
X159400000Y-85600000D01*
X165050000Y-88200000D02*
X165050000Y-87650000D01*
X176850000Y-84100000D02*
X177150000Y-84100000D01*
D48*
X160700000Y-81100000D02*
X160324511Y-81475489D01*
D44*
X169300000Y-92500000D02*
X169500000Y-92700000D01*
D47*
X177600000Y-84700000D02*
X177600000Y-85150000D01*
D44*
X163950000Y-82850000D02*
X163900000Y-82900000D01*
D47*
X163100000Y-91500000D02*
X163100000Y-92250000D01*
D48*
X150850000Y-87500000D02*
X152100000Y-87500000D01*
D47*
X160250481Y-81770580D02*
X160210531Y-81810530D01*
D48*
X150850000Y-87500000D02*
X149900000Y-87500000D01*
D47*
X177800000Y-87200000D02*
X178200000Y-86800000D01*
X178650000Y-84700000D02*
X179300000Y-85350000D01*
X164100000Y-87100000D02*
X164500000Y-87100000D01*
X176850000Y-84100000D02*
X176850000Y-84700000D01*
D48*
X179400000Y-88300000D02*
X180134994Y-88300000D01*
D47*
X163200000Y-82400000D02*
X163900000Y-82400000D01*
X181455000Y-82750000D02*
X181150000Y-82750000D01*
X165829624Y-87600000D02*
X165812878Y-87583254D01*
X164500000Y-87100000D02*
X165000000Y-87600000D01*
X169300000Y-92200000D02*
X169850000Y-92200000D01*
X168871502Y-81678498D02*
X168500000Y-82050000D01*
X176850000Y-84700000D02*
X177600000Y-84700000D01*
X166450000Y-87600000D02*
X165829624Y-87600000D01*
D44*
X157750000Y-87100000D02*
X158050000Y-87400000D01*
X158250000Y-85100000D02*
X157800000Y-84650000D01*
D47*
X166450000Y-88500000D02*
X166450000Y-87600000D01*
D51*
X158300000Y-87400000D02*
X158000000Y-87700000D01*
D47*
X162350000Y-81650000D02*
X162350000Y-81950000D01*
X165950000Y-84850000D02*
X165900000Y-84800000D01*
X163050000Y-92300000D02*
X162300000Y-91550000D01*
X163500000Y-81150000D02*
X163900000Y-81550000D01*
X163700000Y-87500000D02*
X164100000Y-87100000D01*
D48*
X160324511Y-81475489D02*
X160324511Y-81600000D01*
D44*
X149500000Y-80350000D02*
X149500000Y-79700000D01*
D51*
X157000000Y-92250000D02*
X157750000Y-92250000D01*
D47*
X160250481Y-81674030D02*
X160250481Y-81770580D01*
D51*
X158000000Y-92000000D02*
X158000000Y-89800000D01*
D47*
X162300000Y-91550000D02*
X161850000Y-91550000D01*
D48*
X181050000Y-89250000D02*
X180800000Y-89500000D01*
D47*
X163140000Y-85100000D02*
X163700000Y-85100000D01*
D48*
X159400000Y-82300000D02*
X159350000Y-82300000D01*
D47*
X168871502Y-81550000D02*
X168871502Y-81678498D01*
D48*
X165200000Y-81750000D02*
X165200000Y-81174500D01*
D50*
X164900000Y-85200000D02*
X164500000Y-84800000D01*
D48*
X159550000Y-82100000D02*
X159350000Y-82300000D01*
D47*
X177650000Y-88100000D02*
X177800000Y-88100000D01*
X165300000Y-89200000D02*
X165600000Y-89500000D01*
X162474500Y-80700000D02*
X162900000Y-80274500D01*
D48*
X159200000Y-82450000D02*
X159200000Y-83100000D01*
D47*
X165812878Y-86937122D02*
X165812878Y-87583254D01*
X165050000Y-85800000D02*
X165050000Y-85250000D01*
X177650000Y-87200000D02*
X177800000Y-87200000D01*
D48*
X160300000Y-80700000D02*
X160300000Y-80703226D01*
D44*
X151400000Y-81450000D02*
X152050000Y-82100000D01*
D51*
X158000000Y-89800000D02*
X158000000Y-89550000D01*
D47*
X166450000Y-88500000D02*
X166450000Y-88550000D01*
X165950000Y-85700000D02*
X165950000Y-84850000D01*
D44*
X156850000Y-84200000D02*
X157025000Y-84375000D01*
X151400000Y-80750000D02*
X151400000Y-81450000D01*
D48*
X152070000Y-86230000D02*
X150850000Y-86230000D01*
X180400000Y-89000000D02*
X180300000Y-89100000D01*
D44*
X157025000Y-84650000D02*
X157025000Y-85550000D01*
D47*
X176850000Y-83350000D02*
X176850000Y-84100000D01*
D48*
X180400000Y-88800000D02*
X180850000Y-89250000D01*
D47*
X165050000Y-85250000D02*
X165000000Y-85200000D01*
X179350000Y-89700000D02*
X180000000Y-89700000D01*
X163140000Y-87600000D02*
X163700000Y-87600000D01*
D44*
X157025000Y-84375000D02*
X157025000Y-84650000D01*
X168562500Y-86400000D02*
X170450000Y-86400000D01*
X157800000Y-84650000D02*
X157025000Y-84650000D01*
D50*
X164000000Y-84800000D02*
X163700000Y-85100000D01*
D47*
X166050000Y-86700000D02*
X165812878Y-86937122D01*
D50*
X178450000Y-89700000D02*
X178150489Y-89999511D01*
D47*
X164150000Y-90550000D02*
X164150000Y-90700000D01*
D44*
X166825000Y-83300000D02*
X167450000Y-83925000D01*
D47*
X171000000Y-90837500D02*
X171000000Y-91950000D01*
X177200000Y-88600000D02*
X178100000Y-88600000D01*
X176250000Y-91100000D02*
X176750000Y-90600000D01*
X161050000Y-92050011D02*
X161140000Y-91960011D01*
X164600000Y-90100000D02*
X164150000Y-90550000D01*
X168500000Y-82950000D02*
X170650000Y-82950000D01*
X162850000Y-83550000D02*
X162750000Y-83650000D01*
X176650000Y-88000000D02*
X176750000Y-88100000D01*
X178350000Y-86250000D02*
X178350000Y-86050000D01*
X176750000Y-88150000D02*
X177200000Y-88600000D01*
X163140000Y-88100000D02*
X164050000Y-88100000D01*
X174600000Y-90200000D02*
X174800000Y-90000000D01*
X176100000Y-89600000D02*
X176200000Y-89700000D01*
X168562500Y-89200000D02*
X169400000Y-89200000D01*
X176750000Y-88100000D02*
X176750000Y-88150000D01*
D44*
X165000000Y-83650000D02*
X165350000Y-83300000D01*
D47*
X161140000Y-91960011D02*
X161140000Y-91600000D01*
X168562500Y-87600000D02*
X169100000Y-87600000D01*
X167450000Y-83925000D02*
X166700000Y-84675000D01*
D50*
X178150489Y-89999511D02*
X178150489Y-90849511D01*
D47*
X167350000Y-87100000D02*
X166950000Y-86700000D01*
D50*
X178150489Y-90849511D02*
X177950480Y-91049520D01*
D47*
X164050000Y-88100000D02*
X164150000Y-88200000D01*
X171000000Y-83962500D02*
X171000000Y-84800000D01*
X164050000Y-90600000D02*
X164150000Y-90700000D01*
X179525000Y-90775000D02*
X180175000Y-90775000D01*
X175437500Y-89600000D02*
X176100000Y-89600000D01*
X179300000Y-86250000D02*
X179200000Y-86350000D01*
X162850000Y-82875000D02*
X162850000Y-83550000D01*
X171000000Y-90837500D02*
X171000000Y-90000000D01*
D44*
X165350000Y-83300000D02*
X166825000Y-83300000D01*
D47*
X179200000Y-86350000D02*
X178450000Y-86350000D01*
X164150000Y-85350000D02*
X164300000Y-85200000D01*
X166700000Y-86450000D02*
X166950000Y-86700000D01*
X178100000Y-88600000D02*
X178300000Y-88400000D01*
X174600000Y-83962500D02*
X175062500Y-83962500D01*
X166700000Y-84675000D02*
X166700000Y-86450000D01*
X171000000Y-91950000D02*
X170750000Y-92200000D01*
X176100000Y-87600000D02*
X176300000Y-87800000D01*
X178450000Y-86350000D02*
X178350000Y-86250000D01*
D50*
X177950480Y-91049520D02*
X177199520Y-91049520D01*
D47*
X169100000Y-87600000D02*
X169400000Y-87300000D01*
X164150000Y-87750000D02*
X164300000Y-87600000D01*
X178900000Y-85850000D02*
X179300000Y-86250000D01*
X176300000Y-88000000D02*
X176650000Y-88000000D01*
D50*
X177199520Y-91049520D02*
X176750000Y-90600000D01*
D47*
X175437500Y-87600000D02*
X176100000Y-87600000D01*
X161140000Y-86960000D02*
X161000000Y-87100000D01*
X175062500Y-83962500D02*
X175100000Y-84000000D01*
X163950000Y-85600000D02*
X164150000Y-85800000D01*
X176000000Y-91100000D02*
X176250000Y-91100000D01*
X161140000Y-89560000D02*
X161140000Y-89100000D01*
X174600000Y-90837500D02*
X174600000Y-90200000D01*
X178800000Y-85850000D02*
X178900000Y-85850000D01*
X176300000Y-87800000D02*
X176300000Y-88000000D01*
X176200000Y-89700000D02*
X176200000Y-89950000D01*
X167350000Y-87600000D02*
X167350000Y-87100000D01*
X163140000Y-85600000D02*
X163950000Y-85600000D01*
X161100000Y-89600000D02*
X161140000Y-89560000D01*
X163140000Y-90600000D02*
X164050000Y-90600000D01*
X161140000Y-86600000D02*
X161140000Y-86960000D01*
X175437500Y-88000000D02*
X176300000Y-88000000D01*
X164150000Y-88200000D02*
X164150000Y-87750000D01*
X171000000Y-83300000D02*
X171000000Y-83962500D01*
X170650000Y-82950000D02*
X171000000Y-83300000D01*
X168562500Y-87600000D02*
X167350000Y-87600000D01*
X175437500Y-90000000D02*
X176150000Y-90000000D01*
X164150000Y-85800000D02*
X164150000Y-85350000D01*
X174800000Y-90000000D02*
X175437500Y-90000000D01*
X180175000Y-90775000D02*
X180200000Y-90800000D01*
X176150000Y-90000000D02*
X176750000Y-90600000D01*
X176200000Y-89950000D02*
X176150000Y-90000000D01*
D48*
X179300000Y-87784900D02*
X179300000Y-87400000D01*
D51*
X181455000Y-83550000D02*
X180450000Y-83550000D01*
X179900000Y-83200000D02*
X180300000Y-83600000D01*
X180450000Y-83550000D02*
X180400000Y-83600000D01*
X179437500Y-81850000D02*
X179900000Y-82312500D01*
D48*
X180300000Y-87900000D02*
X180300000Y-87600000D01*
X179415100Y-87900000D02*
X179300000Y-87784900D01*
D51*
X179900000Y-82312500D02*
X179900000Y-83200000D01*
D48*
X181455000Y-88450000D02*
X180850000Y-88450000D01*
X180300000Y-87900000D02*
X179415100Y-87900000D01*
X180850000Y-88450000D02*
X180300000Y-87900000D01*
D51*
X180300000Y-83600000D02*
X180400000Y-83600000D01*
D44*
X148999760Y-88449760D02*
X149250000Y-88700000D01*
X157175000Y-90550000D02*
X156600000Y-90550000D01*
X149500000Y-89650000D02*
X149250000Y-89400000D01*
X149500000Y-90363082D02*
X149500000Y-89650000D01*
X156090000Y-90040000D02*
X154750000Y-90040000D01*
X148999760Y-87900240D02*
X148599520Y-87500000D01*
X148999760Y-87900240D02*
X148999760Y-88449760D01*
X152840480Y-90559520D02*
X149696438Y-90559520D01*
X149250000Y-89400000D02*
X149250000Y-88700000D01*
X154750000Y-90040000D02*
X153360000Y-90040000D01*
X153360000Y-90040000D02*
X152840480Y-90559520D01*
X149696438Y-90559520D02*
X149500000Y-90363082D01*
X156600000Y-90550000D02*
X156090000Y-90040000D01*
X152760000Y-90040000D02*
X153350000Y-89450000D01*
X150850000Y-90040000D02*
X152390000Y-90040000D01*
X153350000Y-89450000D02*
X156000000Y-89450000D01*
X156000000Y-89450000D02*
X156600000Y-90050000D01*
X156600000Y-90050000D02*
X157175000Y-90050000D01*
X152390000Y-90040000D02*
X152760000Y-90040000D01*
X152390000Y-89660000D02*
X152400000Y-89650000D01*
X152390000Y-90040000D02*
X152390000Y-89660000D01*
X150850000Y-91310000D02*
X149310000Y-91310000D01*
X156350000Y-91550000D02*
X155950000Y-91950000D01*
X157175000Y-91550000D02*
X156350000Y-91550000D01*
X158400000Y-84400000D02*
X158200000Y-84200000D01*
X158200000Y-84200000D02*
X157750000Y-84200000D01*
X149310000Y-91310000D02*
X148599520Y-90599520D01*
X150850000Y-91310000D02*
X151510000Y-91310000D01*
X155950000Y-91950000D02*
X153550000Y-91950000D01*
X152910000Y-91310000D02*
X150850000Y-91310000D01*
X151510000Y-91310000D02*
X151800000Y-91600000D01*
X153550000Y-91950000D02*
X152910000Y-91310000D01*
X148599520Y-90599520D02*
X148599520Y-90500000D01*
X158250000Y-86525000D02*
X158300000Y-86575000D01*
X154750000Y-91310000D02*
X153960000Y-91310000D01*
X149250000Y-90550000D02*
X149250000Y-89750000D01*
X157175000Y-91050000D02*
X155010000Y-91050000D01*
X154750000Y-91310000D02*
X154750000Y-91200000D01*
X149250000Y-89750000D02*
X148599520Y-89099520D01*
X154750000Y-91200000D02*
X154400000Y-90850000D01*
X155010000Y-91050000D02*
X154750000Y-91310000D01*
X148599520Y-89099520D02*
X148599520Y-89000000D01*
X153440480Y-90790480D02*
X149490480Y-90790480D01*
X149490480Y-90790480D02*
X149250000Y-90550000D01*
X153960000Y-91310000D02*
X153440480Y-90790480D01*
X158250000Y-86000000D02*
X158250000Y-86525000D01*
X177950000Y-91500000D02*
X178675000Y-90775000D01*
X177650000Y-91500000D02*
X177950000Y-91500000D01*
X178300000Y-92600000D02*
X178675000Y-92225000D01*
X174600000Y-92600000D02*
X178300000Y-92600000D01*
X174150000Y-92150000D02*
X174600000Y-92600000D01*
X174150000Y-92100000D02*
X174150000Y-92150000D01*
X179525000Y-91725000D02*
X179525000Y-92225000D01*
X179400000Y-91600000D02*
X179525000Y-91725000D01*
X177900000Y-92100000D02*
X178132164Y-91867836D01*
X175950000Y-92100000D02*
X177900000Y-92100000D01*
X178132164Y-91700000D02*
X178232164Y-91600000D01*
X178232164Y-91600000D02*
X179400000Y-91600000D01*
X178132164Y-91867836D02*
X178132164Y-91700000D01*
X174475480Y-91675480D02*
X174900000Y-92100000D01*
X173800000Y-90837500D02*
X173800000Y-91300000D01*
X173800000Y-91300000D02*
X174175479Y-91675479D01*
X174900000Y-92100000D02*
X175050000Y-92100000D01*
X174175479Y-91675479D02*
X174475480Y-91675480D01*
X173400000Y-91950000D02*
X173250000Y-92100000D01*
X173400000Y-90837500D02*
X173400000Y-91950000D01*
X174575960Y-91475960D02*
X174700000Y-91600000D01*
X176650000Y-91600000D02*
X176750000Y-91500000D01*
X174200000Y-91400000D02*
X174275960Y-91475960D01*
X174200000Y-90837500D02*
X174200000Y-91400000D01*
X174700000Y-91600000D02*
X176650000Y-91600000D01*
X174275960Y-91475960D02*
X174575960Y-91475960D01*
X169200000Y-88400000D02*
X169400000Y-88600000D01*
X168562500Y-88400000D02*
X169200000Y-88400000D01*
X168000000Y-88800000D02*
X167700000Y-89100000D01*
X168562500Y-88800000D02*
X168000000Y-88800000D01*
X156300000Y-88150000D02*
X155650000Y-87500000D01*
X149650000Y-82600000D02*
X148900000Y-82600000D01*
X149850000Y-81600000D02*
X149850000Y-82400000D01*
X155650000Y-87500000D02*
X154750000Y-87500000D01*
X148599520Y-82900480D02*
X148599520Y-83000000D01*
X157175000Y-89050000D02*
X156600000Y-89050000D01*
X149500000Y-81250000D02*
X149850000Y-81600000D01*
X148900000Y-82600000D02*
X148599520Y-82900480D01*
X156300000Y-88750000D02*
X156300000Y-88150000D01*
X154750000Y-87500000D02*
X153900000Y-87500000D01*
X156600000Y-89050000D02*
X156300000Y-88750000D01*
X149850000Y-82400000D02*
X149650000Y-82600000D01*
X153900000Y-87500000D02*
X153350000Y-86950000D01*
X156125000Y-85525000D02*
X155560000Y-84960000D01*
X154750000Y-84960000D02*
X153210000Y-84960000D01*
X156850000Y-87100000D02*
X156750000Y-87000000D01*
X155560000Y-84960000D02*
X154750000Y-84960000D01*
X153210000Y-84960000D02*
X153200000Y-84950000D01*
X157000000Y-88050000D02*
X156400000Y-87450000D01*
X156750000Y-87000000D02*
X156400000Y-87000000D01*
X156400000Y-87000000D02*
X156125000Y-86725000D01*
X157175000Y-88050000D02*
X157000000Y-88050000D01*
X156400000Y-87450000D02*
X156400000Y-87000000D01*
X156125000Y-86725000D02*
X156125000Y-85525000D01*
X156600000Y-88400000D02*
X156600000Y-88000000D01*
X149400000Y-82100000D02*
X148800000Y-81500000D01*
X156600000Y-88000000D02*
X156150000Y-87550000D01*
X156150000Y-87100000D02*
X155850000Y-86800000D01*
X155850000Y-86500000D02*
X155580000Y-86230000D01*
X156150000Y-87550000D02*
X156150000Y-87100000D01*
X156750000Y-88550000D02*
X156600000Y-88400000D01*
X157175000Y-88550000D02*
X156750000Y-88550000D01*
X153350000Y-85750000D02*
X153830000Y-86230000D01*
X155850000Y-86800000D02*
X155850000Y-86500000D01*
X153830000Y-86230000D02*
X154750000Y-86230000D01*
X155580000Y-86230000D02*
X154750000Y-86230000D01*
X148800000Y-81500000D02*
X148599520Y-81500000D01*
X156500000Y-89550000D02*
X155720000Y-88770000D01*
X157175000Y-89550000D02*
X156500000Y-89550000D01*
X151050000Y-82100000D02*
X151050000Y-81600000D01*
X155720000Y-88770000D02*
X154750000Y-88770000D01*
X153070000Y-88770000D02*
X153050000Y-88750000D01*
X154750000Y-88770000D02*
X153070000Y-88770000D01*
D51*
X150850000Y-84960000D02*
X152140000Y-84960000D01*
D44*
X156575000Y-85075000D02*
X155750000Y-84250000D01*
X156575000Y-85100000D02*
X156575000Y-85075000D01*
D51*
X154840000Y-83600000D02*
X154750000Y-83690000D01*
D47*
X159050000Y-81175000D02*
X158875011Y-81175000D01*
D51*
X158800000Y-84000000D02*
X159200000Y-84000000D01*
D47*
X158875011Y-81175000D02*
X158600011Y-81450000D01*
D51*
X158500000Y-83700000D02*
X158800000Y-84000000D01*
X158500000Y-83450000D02*
X158350000Y-83600000D01*
X158500000Y-83450000D02*
X158500000Y-83700000D01*
X153660000Y-83690000D02*
X154750000Y-83690000D01*
X152140000Y-84960000D02*
X152390000Y-84960000D01*
D44*
X157950000Y-83000000D02*
X157950000Y-83550000D01*
D51*
X158350000Y-83600000D02*
X156400000Y-83600000D01*
X156400000Y-83600000D02*
X154840000Y-83600000D01*
D44*
X155750000Y-84250000D02*
X155750000Y-83600000D01*
X155750000Y-83600000D02*
X156400000Y-83600000D01*
D51*
X152390000Y-84960000D02*
X153660000Y-83690000D01*
D44*
X171800000Y-83962500D02*
X171800000Y-83000000D01*
X159850000Y-81500000D02*
X159850000Y-81175000D01*
X157300000Y-86000000D02*
X157300000Y-85275000D01*
X172450000Y-92200000D02*
X172450000Y-92150000D01*
X173000000Y-91600000D02*
X173000000Y-90837500D01*
X157300000Y-85275000D02*
X157475000Y-85100000D01*
X172450000Y-92150000D02*
X173000000Y-91600000D01*
X173000000Y-90837500D02*
X173000000Y-90100000D01*
X157300000Y-86600000D02*
X157300000Y-86000000D01*
X157475000Y-86000000D02*
X157300000Y-86000000D01*
X176200000Y-88800000D02*
X176465998Y-89065998D01*
X179800000Y-88900000D02*
X179800000Y-88800000D01*
X176465998Y-89065998D02*
X177965998Y-89065998D01*
X178100000Y-89200000D02*
X179500000Y-89200000D01*
X177965998Y-89065998D02*
X178100000Y-89200000D01*
X179500000Y-89200000D02*
X179800000Y-88900000D01*
X175437500Y-88800000D02*
X176200000Y-88800000D01*
X176100000Y-88400000D02*
X176566478Y-88866478D01*
X176566478Y-88866478D02*
X178066478Y-88866478D01*
X175437500Y-88400000D02*
X176100000Y-88400000D01*
X178600000Y-89000000D02*
X178800000Y-88800000D01*
X178200000Y-89000000D02*
X178600000Y-89000000D01*
X178066478Y-88866478D02*
X178200000Y-89000000D01*
D47*
X158025000Y-80225000D02*
X158000000Y-80250000D01*
D51*
X159100000Y-79450000D02*
X158150000Y-79450000D01*
X156050000Y-80600000D02*
X155850000Y-80800000D01*
X154645266Y-82054734D02*
X154645266Y-82554734D01*
D44*
X154600000Y-82100000D02*
X154645266Y-82054734D01*
D51*
X155850000Y-80800000D02*
X155390531Y-80800000D01*
X159950000Y-79450000D02*
X164050000Y-79450000D01*
D47*
X159850000Y-79550000D02*
X159950000Y-79450000D01*
D44*
X154050000Y-82100000D02*
X154600000Y-82100000D01*
D48*
X154700000Y-81200000D02*
X154845266Y-81345266D01*
D51*
X156900000Y-79450000D02*
X156600000Y-79750000D01*
X154645266Y-82554734D02*
X154400000Y-82800000D01*
X154845266Y-81345266D02*
X154645266Y-81545266D01*
X155390531Y-80800000D02*
X154845266Y-81345266D01*
X158150000Y-79450000D02*
X156900000Y-79450000D01*
D48*
X156550000Y-80068758D02*
X156550000Y-79800000D01*
D51*
X154645266Y-81545266D02*
X154645266Y-82054734D01*
D47*
X159850000Y-80225000D02*
X159850000Y-79550000D01*
X158000000Y-80250000D02*
X158000000Y-79600000D01*
D48*
X156550000Y-79800000D02*
X156600000Y-79750000D01*
D47*
X159050000Y-80225000D02*
X158025000Y-80225000D01*
D51*
X159100000Y-79450000D02*
X159950000Y-79450000D01*
D48*
X154400000Y-81200000D02*
X154700000Y-81200000D01*
D51*
X153300000Y-82800000D02*
X152410000Y-83690000D01*
X164050000Y-79450000D02*
X164800000Y-80200000D01*
X152410000Y-83690000D02*
X150850000Y-83690000D01*
D48*
X156050000Y-80568758D02*
X156550000Y-80068758D01*
D47*
X158000000Y-79600000D02*
X158150000Y-79450000D01*
D48*
X156050000Y-80600000D02*
X156050000Y-80568758D01*
D51*
X154400000Y-82800000D02*
X153300000Y-82800000D01*
D44*
X164400000Y-81950000D02*
X164400000Y-81300000D01*
X165200000Y-82250000D02*
X164700000Y-82250000D01*
X164700000Y-82250000D02*
X164400000Y-81950000D01*
D52*
X149600000Y-83000000D02*
X152100000Y-83000000D01*
X149350000Y-83250000D02*
X149600000Y-83000000D01*
D48*
X152600000Y-82500000D02*
X152600000Y-81500000D01*
X150850000Y-88770000D02*
X150070000Y-88770000D01*
D52*
X152100000Y-83000000D02*
X152600000Y-82500000D01*
X149350000Y-88050000D02*
X149350000Y-83250000D01*
D48*
X152900000Y-81200000D02*
X153000000Y-81200000D01*
X152600000Y-81500000D02*
X152900000Y-81200000D01*
D52*
X150070000Y-88770000D02*
X149350000Y-88050000D01*
D44*
X151900000Y-81150000D02*
X152350000Y-80700000D01*
X152350000Y-80700000D02*
X153000000Y-80700000D01*
X157050000Y-81600000D02*
X158150000Y-81600000D01*
X159050000Y-81850000D02*
X159450000Y-81450000D01*
X157050000Y-81200000D02*
X157050000Y-81600000D01*
X158400000Y-81850000D02*
X159050000Y-81850000D01*
X157100000Y-81150000D02*
X157050000Y-81200000D01*
X157050000Y-81600000D02*
X157050000Y-83000000D01*
X159450000Y-81450000D02*
X159450000Y-81175000D01*
X158150000Y-81600000D02*
X158400000Y-81850000D01*
X158544288Y-82694288D02*
X157950000Y-82100000D01*
X165800000Y-92350000D02*
X164900000Y-92350000D01*
X164459519Y-92024500D02*
X164574500Y-92024500D01*
X164574500Y-92024500D02*
X164900000Y-92350000D01*
X158544288Y-82793290D02*
X158544288Y-82694288D01*
D47*
X162200000Y-85600000D02*
X162100000Y-85700000D01*
D48*
X161565000Y-81175000D02*
X161090000Y-81650000D01*
D47*
X159750000Y-86600000D02*
X159400000Y-86950000D01*
X161600000Y-92300000D02*
X162150000Y-92300000D01*
D48*
X160827782Y-83697812D02*
X160129970Y-83000000D01*
X160600000Y-82450000D02*
X160050000Y-83000000D01*
D47*
X162100000Y-88100000D02*
X162000000Y-88200000D01*
X160460000Y-86600000D02*
X159750000Y-86600000D01*
X159400000Y-86950000D02*
X159650000Y-87200000D01*
X160460000Y-89100000D02*
X160460000Y-89440000D01*
X162460000Y-85600000D02*
X162200000Y-85600000D01*
D48*
X160850000Y-81650000D02*
X160600000Y-81900000D01*
X160129970Y-83000000D02*
X160050000Y-83000000D01*
D47*
X164150000Y-89200000D02*
X163600000Y-89200000D01*
D48*
X160600000Y-81900000D02*
X160600000Y-82450000D01*
D47*
X162100000Y-90600000D02*
X162460000Y-90600000D01*
X162460000Y-88100000D02*
X162100000Y-88100000D01*
X162014812Y-90685188D02*
X162100000Y-90600000D01*
X160460000Y-92160000D02*
X160460000Y-91600000D01*
X160460000Y-89440000D02*
X160400000Y-89500000D01*
X161425489Y-92474511D02*
X160774511Y-92474511D01*
D48*
X161090000Y-81650000D02*
X160850000Y-81650000D01*
D47*
X159650000Y-87200000D02*
X160000000Y-87200000D01*
D44*
X161200000Y-83050000D02*
X160600000Y-82450000D01*
D47*
X161600000Y-92300000D02*
X161425489Y-92474511D01*
X160774511Y-92474511D02*
X160460000Y-92160000D01*
X163600000Y-89200000D02*
X163500000Y-89100000D01*
D44*
X162365000Y-81175000D02*
X162825000Y-81175000D01*
D47*
X161565000Y-80225000D02*
X160725000Y-80225000D01*
X162365000Y-79885000D02*
X162400000Y-79850000D01*
D48*
X167350000Y-82750000D02*
X167400000Y-82700000D01*
D47*
X160725000Y-80225000D02*
X160700000Y-80200000D01*
D48*
X168150000Y-81350000D02*
X167950000Y-81550000D01*
D53*
X168600000Y-80900000D02*
X169500000Y-80900000D01*
D48*
X166600000Y-82750000D02*
X167350000Y-82750000D01*
D53*
X168150000Y-81350000D02*
X168600000Y-80900000D01*
D47*
X162950000Y-81650000D02*
X162850000Y-81550000D01*
X162850000Y-81925000D02*
X162850000Y-81550000D01*
D48*
X167950000Y-81550000D02*
X167950000Y-82150000D01*
D47*
X162400000Y-79850000D02*
X161050000Y-79850000D01*
X163550000Y-81650000D02*
X162950000Y-81650000D01*
X163500000Y-80250000D02*
X163100000Y-79850000D01*
X163550000Y-81925000D02*
X163550000Y-81650000D01*
X162365000Y-80225000D02*
X162365000Y-79885000D01*
X161050000Y-79850000D02*
X160700000Y-80200000D01*
X162850000Y-81000000D02*
X162850000Y-81200000D01*
X162850000Y-81550000D02*
X162850000Y-81200000D01*
X163100000Y-79850000D02*
X162400000Y-79850000D01*
D48*
X167950000Y-82150000D02*
X167400000Y-82700000D01*
D44*
X162825000Y-81175000D02*
X162850000Y-81200000D01*
D47*
X163500000Y-80350000D02*
X162850000Y-81000000D01*
X163500000Y-80250000D02*
X163500000Y-80350000D01*
D48*
X165200000Y-82750000D02*
X165850000Y-82750000D01*
D45*
X165900000Y-82700000D02*
X165900000Y-81550000D01*
X165900000Y-81550000D02*
X167250000Y-80200000D01*
D48*
X165850000Y-82750000D02*
X165900000Y-82700000D01*
D45*
X167250000Y-80200000D02*
X167600000Y-80200000D01*
D47*
X175437500Y-89200000D02*
X176211793Y-89200000D01*
X176211793Y-89200000D02*
X176511793Y-89500000D01*
X175437500Y-89200000D02*
X174600000Y-89200000D01*
X175437500Y-87200000D02*
X174600000Y-87200000D01*
X167850000Y-88000000D02*
X167350000Y-88500000D01*
X176511793Y-89500000D02*
X176750000Y-89500000D01*
X168562500Y-88000000D02*
X167850000Y-88000000D01*
X168562500Y-88000000D02*
X169400000Y-88000000D01*
X175437500Y-87200000D02*
X176750000Y-87200000D01*
D44*
X166250000Y-91900000D02*
X166700000Y-92350000D01*
X164900000Y-91450000D02*
X164900000Y-91500000D01*
X164900000Y-91500000D02*
X165300000Y-91900000D01*
X166700000Y-92350000D02*
X167600000Y-92350000D01*
X165300000Y-91900000D02*
X166250000Y-91900000D01*
X181455000Y-85250000D02*
X180950000Y-85250000D01*
X179075000Y-87000000D02*
X179917836Y-87000000D01*
X180667836Y-86250000D02*
X181455000Y-86250000D01*
X180950000Y-86250000D02*
X181455000Y-86250000D01*
X178800000Y-87400000D02*
X178800000Y-87275000D01*
X180580480Y-85619520D02*
X180580480Y-85880480D01*
X178800000Y-87275000D02*
X179075000Y-87000000D01*
X180950000Y-85250000D02*
X180580480Y-85619520D01*
X180580480Y-85880480D02*
X180950000Y-86250000D01*
X179917836Y-87000000D02*
X180667836Y-86250000D01*
X180450000Y-86750000D02*
X181455000Y-86750000D01*
X182329520Y-86125935D02*
X181953585Y-85750000D01*
X182329520Y-86374065D02*
X182329520Y-86125935D01*
X181455000Y-86750000D02*
X181953585Y-86750000D01*
X181953585Y-86750000D02*
X182329520Y-86374065D01*
X179800000Y-87400000D02*
X180450000Y-86750000D01*
X181953585Y-85750000D02*
X181455000Y-85750000D01*
X167900000Y-91150000D02*
X167900000Y-90900000D01*
X174200000Y-84550000D02*
X173950000Y-84800000D01*
X173950000Y-89000000D02*
X173550000Y-89400000D01*
X173550000Y-89400000D02*
X170800000Y-89400000D01*
X167600000Y-91450000D02*
X167900000Y-91150000D01*
X174200000Y-83962500D02*
X174200000Y-84550000D01*
X173950000Y-84800000D02*
X173950000Y-89000000D01*
X179300000Y-84050000D02*
X178600000Y-83350000D01*
X178600000Y-83350000D02*
X178350000Y-83350000D01*
X166075480Y-91024520D02*
X162475480Y-91024520D01*
X169400000Y-90837500D02*
X169400000Y-90500000D01*
X162475480Y-91024520D02*
X162350000Y-91150000D01*
X162350000Y-91150000D02*
X161900000Y-91150000D01*
X161350000Y-90600000D02*
X161140000Y-90600000D01*
X169400000Y-90500000D02*
X166600000Y-90500000D01*
X161900000Y-91150000D02*
X161350000Y-90600000D01*
X166600000Y-90500000D02*
X166075480Y-91024520D01*
X159250000Y-91550000D02*
X160200000Y-90600000D01*
X160200000Y-90600000D02*
X160460000Y-90600000D01*
X158825000Y-91550000D02*
X159250000Y-91550000D01*
X160460000Y-91100000D02*
X160200000Y-91100000D01*
X160200000Y-91100000D02*
X159800000Y-91500000D01*
X159800000Y-91500000D02*
X159800000Y-91600000D01*
X172600000Y-90837500D02*
X172600000Y-91400000D01*
X172600000Y-91400000D02*
X172400000Y-91600000D01*
X161650000Y-89600000D02*
X162460000Y-89600000D01*
X161250000Y-90000000D02*
X161650000Y-89600000D01*
X159414820Y-91050000D02*
X160464820Y-90000000D01*
X160464820Y-90000000D02*
X161250000Y-90000000D01*
X158825000Y-91050000D02*
X159414820Y-91050000D01*
X172200000Y-90837500D02*
X172200000Y-90100000D01*
X161800000Y-90100000D02*
X162460000Y-90100000D01*
X177000000Y-82900000D02*
X176736771Y-82900000D01*
X176736771Y-82900000D02*
X176575480Y-83061291D01*
X175900000Y-85600000D02*
X175437500Y-85600000D01*
X177350000Y-83250000D02*
X177000000Y-82900000D01*
X177350000Y-83350000D02*
X177350000Y-83250000D01*
X176575480Y-84924520D02*
X175900000Y-85600000D01*
X176575480Y-83061291D02*
X176575480Y-84924520D01*
X176850000Y-86050000D02*
X176800000Y-86000000D01*
X176800000Y-86000000D02*
X175437500Y-86000000D01*
X177350000Y-86050000D02*
X177350000Y-86225000D01*
X176000000Y-86400000D02*
X175437500Y-86400000D01*
X177075000Y-86500000D02*
X176100000Y-86500000D01*
X177350000Y-86225000D02*
X177075000Y-86500000D01*
X176100000Y-86500000D02*
X176000000Y-86400000D01*
X169850000Y-84750000D02*
X170200000Y-84400000D01*
X170200000Y-84400000D02*
X170200000Y-83962500D01*
X159350000Y-90550000D02*
X158825000Y-90550000D01*
X169550000Y-84750000D02*
X169850000Y-84750000D01*
X169500000Y-84800000D02*
X169550000Y-84750000D01*
X159500000Y-90400000D02*
X159350000Y-90550000D01*
X170600000Y-84600000D02*
X170300000Y-84900000D01*
X159250000Y-90050000D02*
X159500000Y-89800000D01*
X158825000Y-90050000D02*
X159250000Y-90050000D01*
X170600000Y-83962500D02*
X170600000Y-84600000D01*
X159600000Y-88300000D02*
X160141082Y-87758918D01*
X160141082Y-87758918D02*
X161141082Y-87758918D01*
X161800000Y-87100000D02*
X162460000Y-87100000D01*
X159025000Y-89050000D02*
X159600000Y-88475000D01*
X158825000Y-89050000D02*
X159025000Y-89050000D01*
X159600000Y-88475000D02*
X159600000Y-88300000D01*
X161141082Y-87758918D02*
X161800000Y-87100000D01*
X159680000Y-85100000D02*
X160180000Y-85600000D01*
X158950000Y-85450000D02*
X159300000Y-85100000D01*
X159300000Y-85100000D02*
X159680000Y-85100000D01*
X159350000Y-87850000D02*
X158950000Y-87450000D01*
X160180000Y-85600000D02*
X160460000Y-85600000D01*
X159350000Y-88350000D02*
X159350000Y-87850000D01*
X158825000Y-88550000D02*
X159150000Y-88550000D01*
X159150000Y-88550000D02*
X159350000Y-88350000D01*
X158950000Y-87450000D02*
X158950000Y-85450000D01*
X158700000Y-85350000D02*
X159250000Y-84800000D01*
X161900000Y-84600000D02*
X162460000Y-84600000D01*
X158825000Y-88050000D02*
X158700000Y-87925000D01*
X159250000Y-84800000D02*
X159771081Y-84800000D01*
X159971081Y-85000000D02*
X161500000Y-85000000D01*
X159771081Y-84800000D02*
X159971081Y-85000000D01*
X161500000Y-85000000D02*
X161900000Y-84600000D01*
X158700000Y-87925000D02*
X158700000Y-85350000D01*
X165400000Y-88700000D02*
X166700000Y-90000000D01*
X166700000Y-90000000D02*
X168562500Y-90000000D01*
X161300000Y-88100000D02*
X161900000Y-88700000D01*
X161140000Y-88100000D02*
X161300000Y-88100000D01*
X161900000Y-88700000D02*
X165400000Y-88700000D01*
X168937500Y-83962500D02*
X169400000Y-83962500D01*
X168700000Y-84200000D02*
X168937500Y-83962500D01*
X161400000Y-85600000D02*
X162200000Y-86400000D01*
X165200000Y-86400000D02*
X165400000Y-86600000D01*
X161140000Y-85600000D02*
X161400000Y-85600000D01*
X162200000Y-86400000D02*
X165200000Y-86400000D01*
X168124500Y-84037750D02*
X168462250Y-83700000D01*
X169200000Y-83300000D02*
X169600000Y-83300000D01*
X169600000Y-83300000D02*
X169800000Y-83500000D01*
X163574500Y-84600000D02*
X163700000Y-84474500D01*
X168800000Y-83700000D02*
X169200000Y-83300000D01*
X169800000Y-83500000D02*
X169800000Y-83962500D01*
X163140000Y-84600000D02*
X163574500Y-84600000D01*
X168124500Y-84200000D02*
X168124500Y-84037750D01*
X168462250Y-83700000D02*
X168800000Y-83700000D01*
X171800000Y-90837500D02*
X171800000Y-91400000D01*
X171800000Y-91400000D02*
X171600000Y-91600000D01*
X171400000Y-90200000D02*
X171600000Y-90000000D01*
X171400000Y-90837500D02*
X171400000Y-90200000D01*
X162460000Y-87600000D02*
X161900000Y-87600000D01*
X170600000Y-90837500D02*
X170600000Y-90300000D01*
X170100000Y-89800000D02*
X170100000Y-89550000D01*
X170600000Y-90300000D02*
X170100000Y-89800000D01*
X160460000Y-86100000D02*
X160000000Y-86100000D01*
X170200000Y-90300000D02*
X169700000Y-89800000D01*
X162460000Y-85100000D02*
X162000000Y-85100000D01*
X170200000Y-90837500D02*
X170200000Y-90300000D01*
X169700000Y-89800000D02*
X169500000Y-89800000D01*
X162050000Y-83050000D02*
X162100000Y-83050000D01*
X161965000Y-81175000D02*
X161965000Y-81435000D01*
X161650000Y-83500000D02*
X161434994Y-83500000D01*
X161200480Y-83734514D02*
X161200480Y-84049520D01*
X162100000Y-83050000D02*
X161650000Y-83500000D01*
X161965000Y-81435000D02*
X161200000Y-82200000D01*
X161434994Y-83500000D02*
X161200480Y-83734514D01*
X161200480Y-84049520D02*
X160900000Y-84350000D01*
X161200000Y-82200000D02*
X162050000Y-83050000D01*
X165300000Y-84550000D02*
X165950000Y-83900000D01*
X165000000Y-84550000D02*
X165300000Y-84550000D01*
X168562500Y-86800000D02*
X168000000Y-86800000D01*
X168000000Y-86800000D02*
X167450000Y-86250000D01*
X167450000Y-86250000D02*
X167450000Y-85675000D01*
X154100000Y-80200000D02*
X154000000Y-80300000D01*
X154000000Y-80300000D02*
X154000000Y-80700000D01*
X154400000Y-80200000D02*
X154100000Y-80200000D01*
X153900000Y-80800000D02*
X154000000Y-80700000D01*
X153900000Y-81350000D02*
X153900000Y-80800000D01*
X153150000Y-82100000D02*
X153900000Y-81350000D01*
X154000000Y-80700000D02*
X154400000Y-80700000D01*
X166950000Y-82250000D02*
X167400000Y-81800000D01*
X166600000Y-81750000D02*
X167350000Y-81750000D01*
X167350000Y-81750000D02*
X167400000Y-81800000D01*
X166600000Y-82250000D02*
X166950000Y-82250000D01*
M02*
