G04 #@! TF.GenerationSoftware,KiCad,Pcbnew,(6.0.2)*
G04 #@! TF.CreationDate,2022-03-09T14:23:31+01:00*
G04 #@! TF.ProjectId,rs-probe,72732d70-726f-4626-952e-6b696361645f,rev?*
G04 #@! TF.SameCoordinates,Original*
G04 #@! TF.FileFunction,Legend,Bot*
G04 #@! TF.FilePolarity,Positive*
%FSLAX46Y46*%
G04 Gerber Fmt 4.6, Leading zero omitted, Abs format (unit mm)*
G04 Created by KiCad (PCBNEW (6.0.2)) date 2022-03-09 14:23:31*
%MOMM*%
%LPD*%
G01*
G04 APERTURE LIST*
G04 Aperture macros list*
%AMRoundRect*
0 Rectangle with rounded corners*
0 $1 Rounding radius*
0 $2 $3 $4 $5 $6 $7 $8 $9 X,Y pos of 4 corners*
0 Add a 4 corners polygon primitive as box body*
4,1,4,$2,$3,$4,$5,$6,$7,$8,$9,$2,$3,0*
0 Add four circle primitives for the rounded corners*
1,1,$1+$1,$2,$3*
1,1,$1+$1,$4,$5*
1,1,$1+$1,$6,$7*
1,1,$1+$1,$8,$9*
0 Add four rect primitives between the rounded corners*
20,1,$1+$1,$2,$3,$4,$5,0*
20,1,$1+$1,$4,$5,$6,$7,0*
20,1,$1+$1,$6,$7,$8,$9,0*
20,1,$1+$1,$8,$9,$2,$3,0*%
G04 Aperture macros list end*
%ADD10C,0.250000*%
%ADD11C,0.120000*%
%ADD12C,0.650000*%
%ADD13O,2.100000X1.000000*%
%ADD14O,1.600000X1.000000*%
%ADD15RoundRect,0.275000X0.325000X0.275000X-0.325000X0.275000X-0.325000X-0.275000X0.325000X-0.275000X0*%
%ADD16C,1.100000*%
%ADD17RoundRect,0.275000X0.275000X-0.325000X0.275000X0.325000X-0.275000X0.325000X-0.275000X-0.325000X0*%
%ADD18RoundRect,0.275000X-0.275000X0.325000X-0.275000X-0.325000X0.275000X-0.325000X0.275000X0.325000X0*%
%ADD19C,0.990600*%
%ADD20C,0.787400*%
%ADD21RoundRect,0.375000X0.375000X0.625000X-0.375000X0.625000X-0.375000X-0.625000X0.375000X-0.625000X0*%
G04 APERTURE END LIST*
D10*
X174694642Y-89660642D02*
X174508928Y-89722547D01*
X174447023Y-89784452D01*
X174385119Y-89908261D01*
X174385119Y-90093976D01*
X174447023Y-90217785D01*
X174508928Y-90279690D01*
X174632738Y-90341595D01*
X175127976Y-90341595D01*
X175127976Y-89041595D01*
X174694642Y-89041595D01*
X174570833Y-89103500D01*
X174508928Y-89165404D01*
X174447023Y-89289214D01*
X174447023Y-89413023D01*
X174508928Y-89536833D01*
X174570833Y-89598738D01*
X174694642Y-89660642D01*
X175127976Y-89660642D01*
X173951785Y-89474928D02*
X173642261Y-90341595D01*
X173332738Y-89474928D02*
X173642261Y-90341595D01*
X173766071Y-90651119D01*
X173827976Y-90713023D01*
X173951785Y-90774928D01*
X171847023Y-89660642D02*
X171413690Y-89660642D01*
X171227976Y-90341595D02*
X171847023Y-90341595D01*
X171847023Y-89041595D01*
X171227976Y-89041595D01*
X170670833Y-90341595D02*
X170670833Y-89474928D01*
X170670833Y-89598738D02*
X170608928Y-89536833D01*
X170485119Y-89474928D01*
X170299404Y-89474928D01*
X170175595Y-89536833D01*
X170113690Y-89660642D01*
X170113690Y-90341595D01*
X170113690Y-89660642D02*
X170051785Y-89536833D01*
X169927976Y-89474928D01*
X169742261Y-89474928D01*
X169618452Y-89536833D01*
X169556547Y-89660642D01*
X169556547Y-90341595D01*
X168937500Y-90341595D02*
X168937500Y-89474928D01*
X168937500Y-89041595D02*
X168999404Y-89103500D01*
X168937500Y-89165404D01*
X168875595Y-89103500D01*
X168937500Y-89041595D01*
X168937500Y-89165404D01*
X168132738Y-90341595D02*
X168256547Y-90279690D01*
X168318452Y-90155880D01*
X168318452Y-89041595D01*
X166213690Y-89660642D02*
X166647023Y-89660642D01*
X166647023Y-90341595D02*
X166647023Y-89041595D01*
X166027976Y-89041595D01*
X165532738Y-90341595D02*
X165532738Y-89474928D01*
X165532738Y-89722547D02*
X165470833Y-89598738D01*
X165408928Y-89536833D01*
X165285119Y-89474928D01*
X165161309Y-89474928D01*
X164232738Y-90279690D02*
X164356547Y-90341595D01*
X164604166Y-90341595D01*
X164727976Y-90279690D01*
X164789880Y-90155880D01*
X164789880Y-89660642D01*
X164727976Y-89536833D01*
X164604166Y-89474928D01*
X164356547Y-89474928D01*
X164232738Y-89536833D01*
X164170833Y-89660642D01*
X164170833Y-89784452D01*
X164789880Y-89908261D01*
X163675595Y-90279690D02*
X163551785Y-90341595D01*
X163304166Y-90341595D01*
X163180357Y-90279690D01*
X163118452Y-90155880D01*
X163118452Y-90093976D01*
X163180357Y-89970166D01*
X163304166Y-89908261D01*
X163489880Y-89908261D01*
X163613690Y-89846357D01*
X163675595Y-89722547D01*
X163675595Y-89660642D01*
X163613690Y-89536833D01*
X163489880Y-89474928D01*
X163304166Y-89474928D01*
X163180357Y-89536833D01*
X162561309Y-90341595D02*
X162561309Y-89041595D01*
X162437500Y-89846357D02*
X162066071Y-90341595D01*
X162066071Y-89474928D02*
X162561309Y-89970166D01*
X174323214Y-91815547D02*
X174385119Y-91753642D01*
X174508928Y-91691738D01*
X174632738Y-91691738D01*
X174756547Y-91753642D01*
X174818452Y-91815547D01*
X174880357Y-91939357D01*
X174880357Y-92063166D01*
X174818452Y-92186976D01*
X174756547Y-92248880D01*
X174632738Y-92310785D01*
X174508928Y-92310785D01*
X174385119Y-92248880D01*
X174323214Y-92186976D01*
X174323214Y-91691738D02*
X174323214Y-92186976D01*
X174261309Y-92248880D01*
X174199404Y-92248880D01*
X174075595Y-92186976D01*
X174013690Y-92063166D01*
X174013690Y-91753642D01*
X174137500Y-91567928D01*
X174323214Y-91444119D01*
X174570833Y-91382214D01*
X174818452Y-91444119D01*
X175004166Y-91567928D01*
X175127976Y-91753642D01*
X175189880Y-92001261D01*
X175127976Y-92248880D01*
X175004166Y-92434595D01*
X174818452Y-92558404D01*
X174570833Y-92620309D01*
X174323214Y-92558404D01*
X174137500Y-92434595D01*
X173456547Y-92434595D02*
X173456547Y-91134595D01*
X173332738Y-91939357D02*
X172961309Y-92434595D01*
X172961309Y-91567928D02*
X173456547Y-92063166D01*
X172218452Y-92434595D02*
X172342261Y-92372690D01*
X172404166Y-92310785D01*
X172466071Y-92186976D01*
X172466071Y-91815547D01*
X172404166Y-91691738D01*
X172342261Y-91629833D01*
X172218452Y-91567928D01*
X172032738Y-91567928D01*
X171908928Y-91629833D01*
X171847023Y-91691738D01*
X171785119Y-91815547D01*
X171785119Y-92186976D01*
X171847023Y-92310785D01*
X171908928Y-92372690D01*
X172032738Y-92434595D01*
X172218452Y-92434595D01*
X171227976Y-92434595D02*
X171227976Y-91567928D01*
X171227976Y-91815547D02*
X171166071Y-91691738D01*
X171104166Y-91629833D01*
X170980357Y-91567928D01*
X170856547Y-91567928D01*
X170423214Y-92434595D02*
X170423214Y-91134595D01*
X170299404Y-91939357D02*
X169927976Y-92434595D01*
X169927976Y-91567928D02*
X170423214Y-92063166D01*
X168875595Y-92372690D02*
X168999404Y-92434595D01*
X169247023Y-92434595D01*
X169370833Y-92372690D01*
X169432738Y-92248880D01*
X169432738Y-91753642D01*
X169370833Y-91629833D01*
X169247023Y-91567928D01*
X168999404Y-91567928D01*
X168875595Y-91629833D01*
X168813690Y-91753642D01*
X168813690Y-91877452D01*
X169432738Y-92001261D01*
X168256547Y-91567928D02*
X168256547Y-92434595D01*
X168256547Y-91691738D02*
X168194642Y-91629833D01*
X168070833Y-91567928D01*
X167885119Y-91567928D01*
X167761309Y-91629833D01*
X167699404Y-91753642D01*
X167699404Y-92434595D01*
X166894642Y-91691738D02*
X167018452Y-91629833D01*
X167080357Y-91567928D01*
X167142261Y-91444119D01*
X167142261Y-91382214D01*
X167080357Y-91258404D01*
X167018452Y-91196500D01*
X166894642Y-91134595D01*
X166647023Y-91134595D01*
X166523214Y-91196500D01*
X166461309Y-91258404D01*
X166399404Y-91382214D01*
X166399404Y-91444119D01*
X166461309Y-91567928D01*
X166523214Y-91629833D01*
X166647023Y-91691738D01*
X166894642Y-91691738D01*
X167018452Y-91753642D01*
X167080357Y-91815547D01*
X167142261Y-91939357D01*
X167142261Y-92186976D01*
X167080357Y-92310785D01*
X167018452Y-92372690D01*
X166894642Y-92434595D01*
X166647023Y-92434595D01*
X166523214Y-92372690D01*
X166461309Y-92310785D01*
X166399404Y-92186976D01*
X166399404Y-91939357D01*
X166461309Y-91815547D01*
X166523214Y-91753642D01*
X166647023Y-91691738D01*
X165780357Y-92434595D02*
X165532738Y-92434595D01*
X165408928Y-92372690D01*
X165347023Y-92310785D01*
X165223214Y-92125071D01*
X165161309Y-91877452D01*
X165161309Y-91382214D01*
X165223214Y-91258404D01*
X165285119Y-91196500D01*
X165408928Y-91134595D01*
X165656547Y-91134595D01*
X165780357Y-91196500D01*
X165842261Y-91258404D01*
X165904166Y-91382214D01*
X165904166Y-91691738D01*
X165842261Y-91815547D01*
X165780357Y-91877452D01*
X165656547Y-91939357D01*
X165408928Y-91939357D01*
X165285119Y-91877452D01*
X165223214Y-91815547D01*
X165161309Y-91691738D01*
G36*
X178183835Y-80149001D02*
G01*
X178286352Y-80164208D01*
X178386885Y-80189390D01*
X178484466Y-80224305D01*
X178578155Y-80268617D01*
X178667049Y-80321898D01*
X178750293Y-80383636D01*
X178827085Y-80453236D01*
X178896685Y-80530027D01*
X178958422Y-80613271D01*
X179011704Y-80702165D01*
X179056015Y-80795854D01*
X179090930Y-80893435D01*
X179116112Y-80993968D01*
X179131319Y-81096486D01*
X179136405Y-81200000D01*
X179131319Y-81303514D01*
X179116112Y-81406032D01*
X179090930Y-81506565D01*
X179056015Y-81604146D01*
X179011704Y-81697835D01*
X178958422Y-81786729D01*
X178896685Y-81869973D01*
X178827085Y-81946764D01*
X178750293Y-82016364D01*
X178667049Y-82078102D01*
X178578155Y-82131383D01*
X178484466Y-82175695D01*
X178386885Y-82210610D01*
X178286352Y-82235792D01*
X178183835Y-82250999D01*
X178080320Y-82256084D01*
X172319680Y-82256084D01*
X172216165Y-82250999D01*
X172113648Y-82235792D01*
X172013115Y-82210610D01*
X171915534Y-82175695D01*
X171821845Y-82131383D01*
X171732951Y-82078102D01*
X171649707Y-82016364D01*
X171572915Y-81946764D01*
X171503315Y-81869973D01*
X171441578Y-81786729D01*
X171388296Y-81697835D01*
X171343985Y-81604146D01*
X171309070Y-81506565D01*
X171283888Y-81406032D01*
X171268681Y-81303514D01*
X171263595Y-81200000D01*
X171263887Y-81194047D01*
X172319878Y-81194047D01*
X172332677Y-81383654D01*
X172371075Y-81542900D01*
X172432095Y-81673571D01*
X172512759Y-81777453D01*
X172611879Y-81855737D01*
X172728263Y-81909613D01*
X172859529Y-81940866D01*
X173003297Y-81951284D01*
X173156888Y-81942950D01*
X173317622Y-81915566D01*
X173317622Y-81744116D01*
X173827209Y-81744116D01*
X173891503Y-81903659D01*
X174039141Y-81958428D01*
X174120103Y-81944141D01*
X174187969Y-81902469D01*
X174235594Y-81835794D01*
X174253453Y-81744116D01*
X174235594Y-81654819D01*
X174187969Y-81589334D01*
X174120103Y-81548853D01*
X174039141Y-81534566D01*
X173891503Y-81589334D01*
X173827209Y-81744116D01*
X173317622Y-81744116D01*
X173317622Y-80813047D01*
X174670172Y-80813047D01*
X174721518Y-80978767D01*
X174775542Y-81137790D01*
X174832246Y-81290115D01*
X174891628Y-81435744D01*
X174971003Y-81617380D01*
X175047203Y-81782877D01*
X175120228Y-81932234D01*
X175365497Y-81932234D01*
X175437331Y-81782877D01*
X175509959Y-81617380D01*
X175583381Y-81435744D01*
X175612447Y-81358353D01*
X175910803Y-81358353D01*
X175911994Y-81417884D01*
X175915566Y-81467891D01*
X176641847Y-81467891D01*
X176619225Y-81565820D01*
X176551359Y-81640531D01*
X176447775Y-81687859D01*
X176317997Y-81703634D01*
X176150119Y-81684584D01*
X176015578Y-81646484D01*
X175975097Y-81896516D01*
X176137022Y-81940569D01*
X176329903Y-81958428D01*
X176465337Y-81949201D01*
X176539226Y-81932234D01*
X177044278Y-81932234D01*
X177351459Y-81932234D01*
X177410693Y-81792038D01*
X177478856Y-81657200D01*
X177554163Y-81524148D01*
X177634828Y-81389309D01*
X177787228Y-81389309D01*
X177787228Y-81932234D01*
X178080122Y-81932234D01*
X178080122Y-80479672D01*
X177986063Y-80461812D01*
X177882478Y-80449906D01*
X177782466Y-80443953D01*
X177699122Y-80441572D01*
X177578869Y-80448716D01*
X177470522Y-80470147D01*
X177375272Y-80506461D01*
X177294309Y-80558253D01*
X177181200Y-80709462D01*
X177151732Y-80809177D01*
X177141909Y-80924966D01*
X177155006Y-81047600D01*
X177194297Y-81158328D01*
X177263948Y-81250602D01*
X177368128Y-81317872D01*
X177282403Y-81454794D01*
X177194297Y-81611956D01*
X177112144Y-81776263D01*
X177044278Y-81932234D01*
X176539226Y-81932234D01*
X176585888Y-81921519D01*
X176690663Y-81875680D01*
X176778769Y-81811981D01*
X176849313Y-81730721D01*
X176901403Y-81632197D01*
X176933550Y-81516111D01*
X176944266Y-81382166D01*
X176932955Y-81243458D01*
X176899022Y-81122609D01*
X176846634Y-81019918D01*
X176779959Y-80935681D01*
X176700783Y-80869899D01*
X176610891Y-80822572D01*
X176514450Y-80793997D01*
X176415628Y-80784472D01*
X176263757Y-80800744D01*
X176138345Y-80849559D01*
X176039391Y-80930919D01*
X175967953Y-81043499D01*
X175925091Y-81185977D01*
X175910803Y-81358353D01*
X175612447Y-81358353D01*
X175638076Y-81290115D01*
X175691430Y-81137790D01*
X175743446Y-80978767D01*
X175794122Y-80813047D01*
X175486941Y-80813047D01*
X175463426Y-80906511D01*
X175435744Y-81005928D01*
X175405085Y-81108620D01*
X175372641Y-81211906D01*
X175339005Y-81314002D01*
X175304775Y-81413122D01*
X175239291Y-81591716D01*
X175170234Y-81413122D01*
X175132432Y-81314002D01*
X175095225Y-81211906D01*
X175058911Y-81108620D01*
X175023788Y-81005928D01*
X174992534Y-80906511D01*
X174967828Y-80813047D01*
X174670172Y-80813047D01*
X173317622Y-80813047D01*
X173317622Y-80477291D01*
X173129503Y-80448716D01*
X172965197Y-80441572D01*
X172826191Y-80452287D01*
X172699688Y-80484434D01*
X172588662Y-80539501D01*
X172496091Y-80618975D01*
X172421974Y-80723155D01*
X172366313Y-80852337D01*
X172331487Y-81008607D01*
X172319878Y-81194047D01*
X171263887Y-81194047D01*
X171268681Y-81096486D01*
X171283888Y-80993968D01*
X171309070Y-80893435D01*
X171343985Y-80795854D01*
X171388296Y-80702165D01*
X171441578Y-80613271D01*
X171503315Y-80530027D01*
X171572915Y-80453236D01*
X171649707Y-80383636D01*
X171732951Y-80321898D01*
X171821845Y-80268617D01*
X171915534Y-80224305D01*
X172013115Y-80189390D01*
X172113648Y-80164208D01*
X172216165Y-80149001D01*
X172319680Y-80143916D01*
X178080320Y-80143916D01*
X178183835Y-80149001D01*
G37*
G36*
X172981866Y-80697556D02*
G01*
X173024728Y-80703509D01*
X173024728Y-81694109D01*
X172998534Y-81696491D01*
X172972341Y-81696491D01*
X172804463Y-81658391D01*
X172694925Y-81553616D01*
X172635394Y-81395263D01*
X172621999Y-81299120D01*
X172617534Y-81194047D01*
X172631822Y-81008309D01*
X172681828Y-80848766D01*
X172779459Y-80738037D01*
X172939003Y-80696366D01*
X172981866Y-80697556D01*
G37*
G36*
X177739603Y-80697556D02*
G01*
X177787228Y-80703509D01*
X177787228Y-81146422D01*
X177722934Y-81146422D01*
X177593752Y-81131837D01*
X177506241Y-81088081D01*
X177439566Y-80922584D01*
X177457425Y-80821381D01*
X177511003Y-80751134D01*
X177593752Y-80710058D01*
X177699122Y-80696366D01*
X177739603Y-80697556D01*
G37*
G36*
X176509688Y-81048791D02*
G01*
X176578744Y-81101178D01*
X176621606Y-81177378D01*
X176641847Y-81265484D01*
X176194172Y-81265484D01*
X176206078Y-81178569D01*
X176244178Y-81103559D01*
X176310853Y-81049981D01*
X176410866Y-81029741D01*
X176509688Y-81048791D01*
G37*
D11*
X151830000Y-79530000D02*
X151195000Y-79530000D01*
X151195000Y-79530000D02*
X151195000Y-80165000D01*
G36*
X152334269Y-82535907D02*
G01*
X152365702Y-82540272D01*
X152365702Y-83266713D01*
X152346493Y-83268459D01*
X152327284Y-83268459D01*
X152204174Y-83240519D01*
X152123846Y-83163684D01*
X152080190Y-83047558D01*
X152070367Y-82977053D01*
X152067093Y-82900000D01*
X152077571Y-82763792D01*
X152114242Y-82646794D01*
X152185838Y-82565593D01*
X152302837Y-82535034D01*
X152334269Y-82535907D01*
G37*
G36*
X154428014Y-82121447D02*
G01*
X154503957Y-82132712D01*
X154578429Y-82151366D01*
X154650715Y-82177231D01*
X154720117Y-82210055D01*
X154785967Y-82249525D01*
X154847632Y-82295258D01*
X154904517Y-82346816D01*
X154956075Y-82403701D01*
X155001809Y-82465366D01*
X155041278Y-82531217D01*
X155074103Y-82600619D01*
X155099967Y-82672904D01*
X155118622Y-82747377D01*
X155129887Y-82823319D01*
X155133654Y-82900000D01*
X155129887Y-82976681D01*
X155118622Y-83052623D01*
X155099967Y-83127096D01*
X155074103Y-83199381D01*
X155041278Y-83268783D01*
X155001809Y-83334634D01*
X154956075Y-83396299D01*
X154904517Y-83453184D01*
X154847632Y-83504742D01*
X154785967Y-83550475D01*
X154720117Y-83589945D01*
X154650715Y-83622769D01*
X154578429Y-83648634D01*
X154503957Y-83667288D01*
X154428014Y-83678553D01*
X154351334Y-83682320D01*
X151848666Y-83682320D01*
X151771986Y-83678553D01*
X151696043Y-83667288D01*
X151621571Y-83648634D01*
X151549285Y-83622769D01*
X151479883Y-83589945D01*
X151414033Y-83550475D01*
X151352368Y-83504742D01*
X151295483Y-83453184D01*
X151243925Y-83396299D01*
X151198191Y-83334634D01*
X151158722Y-83268783D01*
X151125897Y-83199381D01*
X151100033Y-83127096D01*
X151081378Y-83052623D01*
X151070113Y-82976681D01*
X151066346Y-82900000D01*
X151848812Y-82900000D01*
X151858198Y-83039045D01*
X151886356Y-83155826D01*
X151931104Y-83251651D01*
X151990258Y-83327831D01*
X152062946Y-83385239D01*
X152148294Y-83424748D01*
X152244556Y-83447668D01*
X152349986Y-83455308D01*
X152462619Y-83449196D01*
X152580491Y-83429114D01*
X152580491Y-82374379D01*
X152488522Y-82360409D01*
X152714952Y-82360409D01*
X152720191Y-82495088D01*
X152725429Y-82633697D01*
X152731105Y-82773833D01*
X152737653Y-82913097D01*
X152745293Y-83050832D01*
X152754242Y-83186385D01*
X152764502Y-83317354D01*
X152776071Y-83441338D01*
X152954188Y-83441338D01*
X152992606Y-83327176D01*
X153031023Y-83204721D01*
X153069441Y-83080955D01*
X153107858Y-82962865D01*
X153147149Y-83077681D01*
X153188186Y-83202101D01*
X153228349Y-83326522D01*
X153265021Y-83441338D01*
X153443138Y-83441338D01*
X153456235Y-83317135D01*
X153467586Y-83185512D01*
X153470419Y-83146221D01*
X153617763Y-83146221D01*
X153642429Y-83280901D01*
X153716426Y-83381092D01*
X153793552Y-83427173D01*
X153893380Y-83454822D01*
X154015908Y-83464039D01*
X154136836Y-83456835D01*
X154230697Y-83435226D01*
X154351188Y-83381965D01*
X154288323Y-83207340D01*
X154175690Y-83259728D01*
X154103002Y-83278063D01*
X154015908Y-83284175D01*
X153925976Y-83272824D01*
X153869223Y-83241392D01*
X153840410Y-83195989D01*
X153832552Y-83144475D01*
X153851761Y-83085103D01*
X153900656Y-83038827D01*
X153967013Y-83002156D01*
X154040356Y-82971596D01*
X154141638Y-82931433D01*
X154236809Y-82873806D01*
X154307532Y-82787367D01*
X154335472Y-82659017D01*
X154310806Y-82523683D01*
X154236809Y-82421527D01*
X154162787Y-82373991D01*
X154072273Y-82345469D01*
X153965267Y-82335961D01*
X153872061Y-82341637D01*
X153791515Y-82358662D01*
X153666658Y-82409304D01*
X153729523Y-82575197D01*
X153826440Y-82533287D01*
X153949551Y-82515825D01*
X154044624Y-82529601D01*
X154101668Y-82570929D01*
X154120683Y-82639809D01*
X154103221Y-82694816D01*
X154058691Y-82736726D01*
X153997572Y-82769031D01*
X153930342Y-82795225D01*
X153824694Y-82838008D01*
X153723411Y-82900873D01*
X153647449Y-82998663D01*
X153625185Y-83064802D01*
X153617763Y-83146221D01*
X153470419Y-83146221D01*
X153477408Y-83049304D01*
X153485921Y-82911351D01*
X153493125Y-82772087D01*
X153499018Y-82631951D01*
X153503820Y-82493779D01*
X153507749Y-82360409D01*
X153308677Y-82360409D01*
X153310423Y-82465184D01*
X153312169Y-82573451D01*
X153313916Y-82683247D01*
X153315662Y-82792606D01*
X153317408Y-82900437D01*
X153319154Y-83005648D01*
X153320464Y-83106276D01*
X153320901Y-83200355D01*
X153285102Y-83078118D01*
X153246685Y-82947149D01*
X153212633Y-82828404D01*
X153188186Y-82742837D01*
X153031023Y-82742837D01*
X153010068Y-82824911D01*
X152979509Y-82933179D01*
X152942837Y-83060655D01*
X152903547Y-83200355D01*
X152903983Y-83106276D01*
X152905293Y-83005648D01*
X152907039Y-82900655D01*
X152908786Y-82793479D01*
X152910532Y-82684556D01*
X152912278Y-82574324D01*
X152913588Y-82465402D01*
X152914024Y-82360409D01*
X152714952Y-82360409D01*
X152488522Y-82360409D01*
X152442537Y-82353424D01*
X152322046Y-82348185D01*
X152220108Y-82356043D01*
X152127339Y-82379618D01*
X152045920Y-82420000D01*
X151978034Y-82478281D01*
X151923682Y-82554679D01*
X151882864Y-82649413D01*
X151857325Y-82764011D01*
X151848812Y-82900000D01*
X151066346Y-82900000D01*
X151070113Y-82823319D01*
X151081378Y-82747377D01*
X151100033Y-82672904D01*
X151125897Y-82600619D01*
X151158722Y-82531217D01*
X151198191Y-82465366D01*
X151243925Y-82403701D01*
X151295483Y-82346816D01*
X151352368Y-82295258D01*
X151414033Y-82249525D01*
X151479883Y-82210055D01*
X151549285Y-82177231D01*
X151621571Y-82151366D01*
X151696043Y-82132712D01*
X151771986Y-82121447D01*
X151848666Y-82117680D01*
X154351334Y-82117680D01*
X154428014Y-82121447D01*
G37*
G36*
X153096494Y-88941820D02*
G01*
X153161760Y-88969323D01*
X153215021Y-89084576D01*
X153206289Y-89150060D01*
X153183588Y-89205067D01*
X152788936Y-89205067D01*
X152781951Y-89161411D01*
X152780204Y-89121247D01*
X152805428Y-89016472D01*
X152881099Y-88953607D01*
X153007217Y-88932652D01*
X153096494Y-88941820D01*
G37*
G36*
X152148929Y-86844302D02*
G01*
X152161967Y-86756409D01*
X152183557Y-86670217D01*
X152213491Y-86586557D01*
X152251481Y-86506233D01*
X152297162Y-86430020D01*
X152350093Y-86358651D01*
X152409764Y-86292814D01*
X152475601Y-86233143D01*
X152546970Y-86180212D01*
X152623183Y-86134532D01*
X152703507Y-86096541D01*
X152787167Y-86066607D01*
X152873359Y-86045017D01*
X152961252Y-86031979D01*
X153050000Y-86027619D01*
X153138748Y-86031979D01*
X153226641Y-86045017D01*
X153312833Y-86066607D01*
X153396493Y-86096541D01*
X153476817Y-86134532D01*
X153553030Y-86180212D01*
X153624399Y-86233143D01*
X153690236Y-86292814D01*
X153749907Y-86358651D01*
X153802838Y-86430020D01*
X153848519Y-86506233D01*
X153886509Y-86586557D01*
X153916443Y-86670217D01*
X153938033Y-86756409D01*
X153951071Y-86844302D01*
X153955431Y-86933050D01*
X153955431Y-90572381D01*
X152144569Y-90572381D01*
X152144569Y-89994372D01*
X152382059Y-89994372D01*
X152623042Y-89994372D01*
X152623042Y-90338383D01*
X152801159Y-90338383D01*
X152801159Y-89994372D01*
X153132947Y-89994372D01*
X153206289Y-90003103D01*
X153249946Y-90027551D01*
X153270901Y-90065968D01*
X153276139Y-90116609D01*
X153274393Y-90171616D01*
X153268281Y-90220511D01*
X153255184Y-90269406D01*
X153232483Y-90324413D01*
X153417586Y-90354099D01*
X153452511Y-90225750D01*
X153462988Y-90092162D01*
X153450764Y-89959447D01*
X153403616Y-89861657D01*
X153304953Y-89800538D01*
X153231392Y-89784822D01*
X153138186Y-89779583D01*
X152801159Y-89779583D01*
X152801159Y-89592734D01*
X152623042Y-89592734D01*
X152623042Y-89779583D01*
X152416984Y-89779583D01*
X152382059Y-89994372D01*
X152144569Y-89994372D01*
X152144569Y-89129978D01*
X152605579Y-89129978D01*
X152610430Y-89222141D01*
X152624982Y-89319349D01*
X152649236Y-89421602D01*
X153344243Y-89421602D01*
X153466481Y-89410833D01*
X153565435Y-89378528D01*
X153641106Y-89324685D01*
X153694463Y-89246977D01*
X153726478Y-89143075D01*
X153737149Y-89012979D01*
X153733220Y-88937672D01*
X153721433Y-88865421D01*
X153684762Y-88730087D01*
X153503152Y-88770251D01*
X153538950Y-88876772D01*
X153555539Y-89016472D01*
X153542443Y-89109023D01*
X153506644Y-89166649D01*
X153453384Y-89196336D01*
X153387899Y-89205067D01*
X153354721Y-89205067D01*
X153380914Y-89122120D01*
X153389646Y-89040919D01*
X153378392Y-88942450D01*
X153344631Y-88861250D01*
X153288363Y-88797317D01*
X153212110Y-88751236D01*
X153118395Y-88723587D01*
X153007217Y-88714371D01*
X152883621Y-88726788D01*
X152782921Y-88764042D01*
X152705116Y-88826131D01*
X152649818Y-88909562D01*
X152616639Y-89010845D01*
X152605579Y-89129978D01*
X152144569Y-89129978D01*
X152144569Y-88248122D01*
X152382059Y-88248122D01*
X152623042Y-88248122D01*
X152623042Y-88592133D01*
X152801159Y-88592133D01*
X152801159Y-88248122D01*
X153132947Y-88248122D01*
X153206289Y-88256853D01*
X153249946Y-88281301D01*
X153270901Y-88319718D01*
X153276139Y-88370359D01*
X153274393Y-88425366D01*
X153268281Y-88474261D01*
X153255184Y-88523156D01*
X153232483Y-88578163D01*
X153417586Y-88607849D01*
X153452511Y-88479500D01*
X153462988Y-88345912D01*
X153450764Y-88213197D01*
X153403616Y-88115407D01*
X153304953Y-88054288D01*
X153231392Y-88038572D01*
X153138186Y-88033333D01*
X152801159Y-88033333D01*
X152801159Y-87846484D01*
X152623042Y-87846484D01*
X152623042Y-88033333D01*
X152416984Y-88033333D01*
X152382059Y-88248122D01*
X152144569Y-88248122D01*
X152144569Y-87160208D01*
X152362851Y-87160208D01*
X152453437Y-87173305D01*
X152557557Y-87191641D01*
X152670191Y-87213687D01*
X152786316Y-87237916D01*
X152903315Y-87264110D01*
X153018567Y-87292050D01*
X153127053Y-87320645D01*
X153223752Y-87348803D01*
X153128363Y-87376743D01*
X153020314Y-87404683D01*
X152905061Y-87431750D01*
X152788062Y-87457071D01*
X152671719Y-87480645D01*
X152558431Y-87502473D01*
X152453656Y-87521682D01*
X152362851Y-87537398D01*
X152362851Y-87762664D01*
X152473737Y-87739308D01*
X152596848Y-87711150D01*
X152729345Y-87678408D01*
X152868390Y-87641300D01*
X152963852Y-87614233D01*
X153060478Y-87585420D01*
X153158268Y-87554861D01*
X153255572Y-87523040D01*
X153350743Y-87490443D01*
X153443779Y-87457071D01*
X153443779Y-87235297D01*
X153315430Y-87192077D01*
X153171364Y-87146238D01*
X153070179Y-87115388D01*
X152969187Y-87085701D01*
X152868390Y-87057179D01*
X152769533Y-87030209D01*
X152674362Y-87005180D01*
X152582878Y-86982091D01*
X152460641Y-86953277D01*
X152362851Y-86933196D01*
X152362851Y-87160208D01*
X152144569Y-87160208D01*
X152144569Y-86933050D01*
X152148929Y-86844302D01*
G37*
G36*
X150968459Y-89846950D02*
G01*
X150968459Y-89866158D01*
X150940519Y-89989269D01*
X150863684Y-90069597D01*
X150747558Y-90113253D01*
X150677053Y-90123075D01*
X150600000Y-90126350D01*
X150463792Y-90115872D01*
X150346794Y-90079201D01*
X150265593Y-90007605D01*
X150235034Y-89890606D01*
X150235907Y-89859173D01*
X150240272Y-89827741D01*
X150966713Y-89827741D01*
X150968459Y-89846950D01*
G37*
G36*
X149821447Y-87742727D02*
G01*
X149832712Y-87666785D01*
X149851366Y-87592312D01*
X149877231Y-87520027D01*
X149910055Y-87450625D01*
X149949525Y-87384774D01*
X149995258Y-87323109D01*
X150046816Y-87266224D01*
X150103701Y-87214666D01*
X150165366Y-87168933D01*
X150231217Y-87129463D01*
X150300619Y-87096638D01*
X150372904Y-87070774D01*
X150447377Y-87052120D01*
X150523319Y-87040855D01*
X150600000Y-87037088D01*
X150676681Y-87040855D01*
X150752623Y-87052120D01*
X150827096Y-87070774D01*
X150899381Y-87096638D01*
X150968783Y-87129463D01*
X151034634Y-87168933D01*
X151096299Y-87214666D01*
X151153184Y-87266224D01*
X151204742Y-87323109D01*
X151250475Y-87384774D01*
X151289945Y-87450625D01*
X151322769Y-87520027D01*
X151348634Y-87592312D01*
X151367288Y-87666785D01*
X151378553Y-87742727D01*
X151382320Y-87819408D01*
X151382320Y-90562912D01*
X149817680Y-90562912D01*
X149817680Y-89871397D01*
X150048185Y-89871397D01*
X150056043Y-89973334D01*
X150079618Y-90066104D01*
X150120000Y-90147523D01*
X150178281Y-90215408D01*
X150254679Y-90269760D01*
X150349413Y-90310579D01*
X150464011Y-90336118D01*
X150600000Y-90344631D01*
X150739045Y-90335245D01*
X150855826Y-90307087D01*
X150951651Y-90262339D01*
X151027831Y-90203185D01*
X151085239Y-90130497D01*
X151124748Y-90045149D01*
X151147668Y-89948887D01*
X151155308Y-89843457D01*
X151149196Y-89730824D01*
X151129114Y-89612952D01*
X150074379Y-89612952D01*
X150053424Y-89750906D01*
X150048185Y-89871397D01*
X149817680Y-89871397D01*
X149817680Y-89438327D01*
X150060409Y-89438327D01*
X151141338Y-89438327D01*
X151141338Y-89265448D01*
X151021525Y-89215098D01*
X150901907Y-89161838D01*
X150782483Y-89105667D01*
X150663059Y-89046585D01*
X150543441Y-88984593D01*
X150423629Y-88919691D01*
X151141338Y-88919691D01*
X151141338Y-88725857D01*
X150060409Y-88725857D01*
X150060409Y-88898736D01*
X150140518Y-88947631D01*
X150227176Y-88996526D01*
X150316889Y-89044766D01*
X150406166Y-89091697D01*
X150493915Y-89136226D01*
X150579045Y-89177263D01*
X150657626Y-89213716D01*
X150725730Y-89244493D01*
X150060409Y-89244493D01*
X150060409Y-89438327D01*
X149817680Y-89438327D01*
X149817680Y-88287548D01*
X150035961Y-88287548D01*
X150045566Y-88400182D01*
X150067394Y-88486621D01*
X150093587Y-88546867D01*
X150114542Y-88582665D01*
X150285675Y-88526785D01*
X150242019Y-88432487D01*
X150222810Y-88317235D01*
X150250750Y-88188012D01*
X150328458Y-88101573D01*
X150447203Y-88052678D01*
X150519891Y-88041545D01*
X150600000Y-88037835D01*
X150717872Y-88044626D01*
X150813043Y-88064999D01*
X150885512Y-88098953D01*
X150954270Y-88174479D01*
X150977190Y-88278817D01*
X150975444Y-88320727D01*
X150970205Y-88362637D01*
X150575552Y-88362637D01*
X150575552Y-88577426D01*
X151115144Y-88577426D01*
X151146576Y-88457808D01*
X151159673Y-88368094D01*
X151164039Y-88261355D01*
X151155089Y-88165093D01*
X151128241Y-88078872D01*
X151083711Y-88003564D01*
X151021719Y-87940045D01*
X150942265Y-87888967D01*
X150845348Y-87850986D01*
X150731187Y-87827412D01*
X150600000Y-87819553D01*
X150470123Y-87828721D01*
X150356398Y-87856225D01*
X150259263Y-87899444D01*
X150179154Y-87955761D01*
X150116507Y-88024301D01*
X150071759Y-88104192D01*
X150044911Y-88192814D01*
X150035961Y-88287548D01*
X149817680Y-88287548D01*
X149817680Y-87819408D01*
X149821447Y-87742727D01*
G37*
G36*
X157317680Y-90524687D02*
G01*
X157317680Y-89916992D01*
X157535961Y-89916992D01*
X157551775Y-90033796D01*
X157599214Y-90130422D01*
X157678281Y-90206869D01*
X157758008Y-90250416D01*
X157854870Y-90281521D01*
X157968868Y-90300184D01*
X158100000Y-90306405D01*
X158231132Y-90300075D01*
X158345130Y-90281085D01*
X158441992Y-90249434D01*
X158521719Y-90205123D01*
X158600786Y-90128288D01*
X158648225Y-90032826D01*
X158664039Y-89918738D01*
X158648225Y-89801836D01*
X158600786Y-89704919D01*
X158521719Y-89627987D01*
X158441992Y-89584058D01*
X158345130Y-89552680D01*
X158231132Y-89533853D01*
X158100000Y-89527578D01*
X157968868Y-89534017D01*
X157854870Y-89553335D01*
X157758008Y-89585531D01*
X157678281Y-89630607D01*
X157599214Y-89708218D01*
X157551775Y-89803679D01*
X157535961Y-89916992D01*
X157317680Y-89916992D01*
X157317680Y-89387878D01*
X157560409Y-89387878D01*
X157738526Y-89387878D01*
X157738526Y-89153880D01*
X158463220Y-89153880D01*
X158463220Y-89387878D01*
X158641338Y-89387878D01*
X158641338Y-88701602D01*
X158463220Y-88701602D01*
X158463220Y-88937345D01*
X157738526Y-88937345D01*
X157738526Y-88701602D01*
X157560409Y-88701602D01*
X157560409Y-89387878D01*
X157317680Y-89387878D01*
X157317680Y-88086922D01*
X157548185Y-88086922D01*
X157556043Y-88188859D01*
X157579618Y-88281628D01*
X157620000Y-88363047D01*
X157678281Y-88430933D01*
X157754679Y-88485285D01*
X157849413Y-88526103D01*
X157964011Y-88551642D01*
X158100000Y-88560155D01*
X158239045Y-88550769D01*
X158355826Y-88522611D01*
X158451651Y-88477863D01*
X158527831Y-88418709D01*
X158585239Y-88346021D01*
X158624748Y-88260673D01*
X158647668Y-88164411D01*
X158655308Y-88058982D01*
X158649196Y-87946348D01*
X158629114Y-87828477D01*
X157574379Y-87828477D01*
X157553424Y-87966430D01*
X157548185Y-88086922D01*
X157317680Y-88086922D01*
X157317680Y-87694015D01*
X157560409Y-87694015D01*
X157695088Y-87688777D01*
X157833697Y-87683538D01*
X157973833Y-87677862D01*
X158113097Y-87671314D01*
X158250832Y-87663674D01*
X158386385Y-87654725D01*
X158517354Y-87644465D01*
X158641338Y-87632897D01*
X158641338Y-87454779D01*
X158527176Y-87416362D01*
X158404721Y-87377944D01*
X158280955Y-87339527D01*
X158162865Y-87301109D01*
X158277681Y-87261818D01*
X158402101Y-87220782D01*
X158526522Y-87180618D01*
X158641338Y-87143947D01*
X158641338Y-86965829D01*
X158517135Y-86952732D01*
X158385512Y-86941382D01*
X158249304Y-86931559D01*
X158111351Y-86923046D01*
X157972087Y-86915843D01*
X157831951Y-86909949D01*
X157693779Y-86905147D01*
X157560409Y-86901218D01*
X157560409Y-87100290D01*
X157665184Y-87098544D01*
X157773451Y-87096798D01*
X157883247Y-87095052D01*
X157992606Y-87093305D01*
X158100437Y-87091559D01*
X158205648Y-87089813D01*
X158306276Y-87088503D01*
X158400355Y-87088067D01*
X158278118Y-87123865D01*
X158147149Y-87162282D01*
X158028404Y-87196334D01*
X157942837Y-87220782D01*
X157942837Y-87377944D01*
X158024911Y-87398899D01*
X158133179Y-87429458D01*
X158260655Y-87466130D01*
X158400355Y-87505420D01*
X158306276Y-87504984D01*
X158205648Y-87503674D01*
X158100655Y-87501928D01*
X157993479Y-87500182D01*
X157884556Y-87498435D01*
X157774324Y-87496689D01*
X157665402Y-87495379D01*
X157560409Y-87494943D01*
X157560409Y-87694015D01*
X157317680Y-87694015D01*
X157317680Y-86443700D01*
X157535961Y-86443700D01*
X157541637Y-86536906D01*
X157558662Y-86617452D01*
X157609304Y-86742309D01*
X157775197Y-86679444D01*
X157733287Y-86582527D01*
X157715825Y-86459417D01*
X157729601Y-86364343D01*
X157770929Y-86307299D01*
X157839809Y-86288284D01*
X157894816Y-86305747D01*
X157936726Y-86350276D01*
X157969031Y-86411395D01*
X157995225Y-86478625D01*
X158038008Y-86584273D01*
X158100873Y-86685556D01*
X158198663Y-86761518D01*
X158264802Y-86783782D01*
X158346221Y-86791204D01*
X158480901Y-86766538D01*
X158581092Y-86692541D01*
X158627173Y-86615415D01*
X158654822Y-86515588D01*
X158664039Y-86393059D01*
X158656835Y-86272131D01*
X158635226Y-86178270D01*
X158581965Y-86057779D01*
X158407340Y-86120644D01*
X158459728Y-86233277D01*
X158478063Y-86305965D01*
X158484175Y-86393059D01*
X158472824Y-86482991D01*
X158441392Y-86539744D01*
X158395989Y-86568557D01*
X158344475Y-86576415D01*
X158285103Y-86557207D01*
X158238827Y-86508312D01*
X158202156Y-86441954D01*
X158171596Y-86368612D01*
X158131433Y-86267329D01*
X158073806Y-86172158D01*
X157987367Y-86101435D01*
X157859017Y-86073495D01*
X157723683Y-86098161D01*
X157621527Y-86172158D01*
X157573991Y-86246180D01*
X157545469Y-86336694D01*
X157535961Y-86443700D01*
X157317680Y-86443700D01*
X157317680Y-86057633D01*
X157321447Y-85980953D01*
X157332712Y-85905010D01*
X157351366Y-85830538D01*
X157377231Y-85758253D01*
X157410055Y-85688850D01*
X157449525Y-85623000D01*
X157495258Y-85561335D01*
X157546816Y-85504450D01*
X157603701Y-85452892D01*
X157665366Y-85407158D01*
X157731217Y-85367689D01*
X157800619Y-85334864D01*
X157872904Y-85309000D01*
X157947377Y-85290346D01*
X158023319Y-85279081D01*
X158100000Y-85275313D01*
X158176681Y-85279081D01*
X158252623Y-85290346D01*
X158327096Y-85309000D01*
X158399381Y-85334864D01*
X158468783Y-85367689D01*
X158534634Y-85407158D01*
X158596299Y-85452892D01*
X158653184Y-85504450D01*
X158704742Y-85561335D01*
X158750475Y-85623000D01*
X158789945Y-85688850D01*
X158822769Y-85758253D01*
X158848634Y-85830538D01*
X158867288Y-85905010D01*
X158878553Y-85980953D01*
X158882320Y-86057633D01*
X158882320Y-90524687D01*
X157317680Y-90524687D01*
G37*
G36*
X158468459Y-88062474D02*
G01*
X158468459Y-88081683D01*
X158440519Y-88204793D01*
X158363684Y-88285121D01*
X158247558Y-88328777D01*
X158177053Y-88338600D01*
X158100000Y-88341874D01*
X157963792Y-88331397D01*
X157846794Y-88294725D01*
X157765593Y-88223129D01*
X157735034Y-88106130D01*
X157735907Y-88074698D01*
X157740272Y-88043265D01*
X158466713Y-88043265D01*
X158468459Y-88062474D01*
G37*
G36*
X158176180Y-89747387D02*
G01*
X158247558Y-89751971D01*
X158367176Y-89776418D01*
X158447504Y-89827933D01*
X158477190Y-89916992D01*
X158447504Y-90005177D01*
X158366303Y-90057565D01*
X158246685Y-90082012D01*
X158175962Y-90086596D01*
X158100000Y-90088124D01*
X158023820Y-90086596D01*
X157952442Y-90082012D01*
X157832824Y-90057565D01*
X157752496Y-90006050D01*
X157722810Y-89916992D01*
X157752496Y-89827933D01*
X157833697Y-89776418D01*
X157953315Y-89751971D01*
X158024038Y-89747387D01*
X158100000Y-89745859D01*
X158176180Y-89747387D01*
G37*
G36*
X169547793Y-85593699D02*
G01*
X169668344Y-85708297D01*
X169741270Y-85885402D01*
X169765578Y-86111125D01*
X169743254Y-86337344D01*
X169676281Y-86515938D01*
X169559699Y-86632023D01*
X169388547Y-86670719D01*
X169221363Y-86632023D01*
X169100812Y-86515938D01*
X169027887Y-86337344D01*
X169003578Y-86111125D01*
X169025902Y-85885402D01*
X169092875Y-85708297D01*
X169209457Y-85593699D01*
X169380609Y-85555500D01*
X169547793Y-85593699D01*
G37*
G36*
X165560687Y-85571375D02*
G01*
X165675781Y-85658687D01*
X165747219Y-85785687D01*
X165780953Y-85932531D01*
X165034828Y-85932531D01*
X165054672Y-85787672D01*
X165118172Y-85662656D01*
X165229297Y-85573359D01*
X165395984Y-85539625D01*
X165560687Y-85571375D01*
G37*
G36*
X162742478Y-83793375D02*
G01*
X186533547Y-83793375D01*
X187857522Y-88206625D01*
X164066453Y-88206625D01*
X163430659Y-86087313D01*
X164562547Y-86087313D01*
X164564531Y-86186531D01*
X164570484Y-86269875D01*
X165780953Y-86269875D01*
X165743250Y-86433090D01*
X165630141Y-86557609D01*
X165457500Y-86636488D01*
X165241203Y-86662781D01*
X164961406Y-86631031D01*
X164737172Y-86567531D01*
X164669703Y-86984250D01*
X164939578Y-87057672D01*
X165261047Y-87087438D01*
X165486770Y-87072059D01*
X165687687Y-87025922D01*
X165862312Y-86949523D01*
X166009156Y-86843359D01*
X166126730Y-86707926D01*
X166213547Y-86543719D01*
X166267125Y-86350242D01*
X166284984Y-86127000D01*
X166283690Y-86111125D01*
X166527078Y-86111125D01*
X166541961Y-86322957D01*
X166586609Y-86513953D01*
X166660031Y-86681137D01*
X166761234Y-86821531D01*
X166889227Y-86934145D01*
X167043016Y-87017984D01*
X167221609Y-87070074D01*
X167424016Y-87087438D01*
X167616500Y-87080492D01*
X167812953Y-87059656D01*
X167995516Y-87027906D01*
X168146328Y-86988219D01*
X168146328Y-86107156D01*
X168503516Y-86107156D01*
X168519391Y-86318988D01*
X168567016Y-86509984D01*
X168643414Y-86678160D01*
X168745609Y-86821531D01*
X168872113Y-86937617D01*
X169021437Y-87023938D01*
X169191598Y-87077516D01*
X169380609Y-87095375D01*
X169569621Y-87077516D01*
X169739781Y-87023938D01*
X169889602Y-86937617D01*
X170017594Y-86821531D01*
X170121277Y-86678160D01*
X170198172Y-86509984D01*
X170245797Y-86318988D01*
X170261672Y-86107156D01*
X170245301Y-85898301D01*
X170196187Y-85708297D01*
X170117805Y-85540617D01*
X170013625Y-85398734D01*
X169885137Y-85284633D01*
X169772990Y-85222125D01*
X170539484Y-85222125D01*
X170626797Y-85674562D01*
X170739906Y-85650750D01*
X170872859Y-85628922D01*
X171003828Y-85615031D01*
X171110984Y-85611062D01*
X171313391Y-85620984D01*
X171515797Y-85658687D01*
X171515797Y-87043781D01*
X172007922Y-87043781D01*
X172007922Y-85380875D01*
X172472266Y-85380875D01*
X172501149Y-85647443D01*
X172587800Y-85859771D01*
X172732219Y-86017859D01*
X172929554Y-86127000D01*
X173174955Y-86192484D01*
X173468422Y-86214313D01*
X173643047Y-86214313D01*
X173643047Y-87043781D01*
X174131203Y-87043781D01*
X174131203Y-85178469D01*
X176441016Y-85178469D01*
X176514934Y-85437926D01*
X176585875Y-85692422D01*
X176656816Y-85941461D01*
X176730734Y-86184547D01*
X176808621Y-86422176D01*
X176891469Y-86654844D01*
X176980270Y-86882055D01*
X177076016Y-87103313D01*
X177224844Y-87377156D01*
X177387563Y-87565672D01*
X177586000Y-87674813D01*
X177841984Y-87710531D01*
X178066219Y-87690688D01*
X178234891Y-87639094D01*
X178143609Y-87230313D01*
X178002719Y-87279922D01*
X177869766Y-87293813D01*
X177639578Y-87198563D01*
X177507983Y-86984250D01*
X178425391Y-86984250D01*
X178717094Y-87063625D01*
X179020703Y-87087438D01*
X179322328Y-87059656D01*
X179544578Y-86952500D01*
X179683484Y-86728266D01*
X179719203Y-86561082D01*
X179721071Y-86527844D01*
X180528828Y-86527844D01*
X180572484Y-86746125D01*
X180717344Y-86924719D01*
X180981266Y-87043781D01*
X181162836Y-87076523D01*
X181382109Y-87087438D01*
X181606344Y-87073547D01*
X181794859Y-87031875D01*
X181937258Y-86980281D01*
X182529078Y-86980281D01*
X182678402Y-87016000D01*
X182856500Y-87051719D01*
X183057418Y-87078508D01*
X183275203Y-87087438D01*
X183484555Y-87071563D01*
X183582370Y-87043781D01*
X184311047Y-87043781D01*
X184823016Y-87043781D01*
X184921738Y-86810121D01*
X185035344Y-86585391D01*
X185160855Y-86363637D01*
X185295297Y-86138906D01*
X185549297Y-86138906D01*
X185549297Y-87043781D01*
X186037453Y-87043781D01*
X186037453Y-84622844D01*
X185880688Y-84593078D01*
X185708047Y-84573234D01*
X185541359Y-84563312D01*
X185402453Y-84559344D01*
X185202031Y-84571250D01*
X185021453Y-84606969D01*
X184862703Y-84667492D01*
X184727766Y-84753812D01*
X184539250Y-85005828D01*
X184490137Y-85172020D01*
X184473766Y-85365000D01*
X184495594Y-85569391D01*
X184561078Y-85753937D01*
X184677164Y-85907727D01*
X184850797Y-86019844D01*
X184707922Y-86248047D01*
X184561078Y-86509984D01*
X184424156Y-86783828D01*
X184311047Y-87043781D01*
X183582370Y-87043781D01*
X183652234Y-87023938D01*
X183884406Y-86843359D01*
X184001484Y-86567531D01*
X184025297Y-86400844D01*
X184033234Y-86218281D01*
X184033234Y-85178469D01*
X183545078Y-85178469D01*
X183545078Y-86154781D01*
X183529699Y-86379512D01*
X183483563Y-86537766D01*
X183243453Y-86662781D01*
X183021203Y-86642938D01*
X183021203Y-85178469D01*
X182529078Y-85178469D01*
X182529078Y-86980281D01*
X181937258Y-86980281D01*
X182068703Y-86932656D01*
X181993297Y-86523875D01*
X181697625Y-86627063D01*
X181378141Y-86674688D01*
X181104297Y-86648891D01*
X181009047Y-86543719D01*
X181038813Y-86456406D01*
X181122156Y-86394891D01*
X181245188Y-86345281D01*
X181390047Y-86297656D01*
X181608328Y-86224234D01*
X181810734Y-86119063D01*
X181961547Y-85958328D01*
X182021078Y-85714250D01*
X181975438Y-85490016D01*
X181832563Y-85303484D01*
X181584516Y-85176484D01*
X181418820Y-85142254D01*
X181223359Y-85130844D01*
X181047246Y-85137789D01*
X180884031Y-85158625D01*
X180612172Y-85238000D01*
X180687578Y-85650750D01*
X180897922Y-85585266D01*
X181219391Y-85539625D01*
X181471406Y-85585266D01*
X181536891Y-85682500D01*
X181507125Y-85759891D01*
X181427750Y-85821406D01*
X181312656Y-85874984D01*
X181171766Y-85924594D01*
X180949516Y-86003969D01*
X180741156Y-86113109D01*
X180588359Y-86279797D01*
X180528828Y-86527844D01*
X179721071Y-86527844D01*
X179731109Y-86349250D01*
X179731109Y-85583281D01*
X180155766Y-85583281D01*
X180155766Y-85178469D01*
X179731109Y-85178469D01*
X179731109Y-84710156D01*
X179242953Y-84630781D01*
X179242953Y-85178469D01*
X178461109Y-85178469D01*
X178461109Y-85583281D01*
X179242953Y-85583281D01*
X179242953Y-86337344D01*
X179223109Y-86504031D01*
X179167547Y-86603250D01*
X179080234Y-86650875D01*
X178965141Y-86662781D01*
X178840125Y-86658813D01*
X178729000Y-86644922D01*
X178617875Y-86615156D01*
X178492859Y-86563563D01*
X178425391Y-86984250D01*
X177507983Y-86984250D01*
X177500672Y-86972344D01*
X177617089Y-86728266D01*
X177733505Y-86461698D01*
X177849922Y-86172641D01*
X177935250Y-85941585D01*
X178016609Y-85698871D01*
X178094000Y-85444499D01*
X178167422Y-85178469D01*
X177659422Y-85178469D01*
X177578063Y-85492000D01*
X177530934Y-85658687D01*
X177480828Y-85825375D01*
X177427746Y-85990574D01*
X177371688Y-86152797D01*
X177254609Y-86452438D01*
X177171266Y-86152797D01*
X177128602Y-85991070D01*
X177087922Y-85827359D01*
X177048730Y-85662160D01*
X177010531Y-85495969D01*
X176941078Y-85178469D01*
X176441016Y-85178469D01*
X174131203Y-85178469D01*
X174131203Y-84618875D01*
X173970469Y-84591094D01*
X173789891Y-84573234D01*
X173611297Y-84563312D01*
X173456516Y-84559344D01*
X173167679Y-84580731D01*
X172925585Y-84644892D01*
X172730234Y-84751828D01*
X172586918Y-84907271D01*
X172500929Y-85116953D01*
X172472266Y-85380875D01*
X172007922Y-85380875D01*
X172007922Y-85301500D01*
X171810973Y-85237008D01*
X171609062Y-85186406D01*
X171387309Y-85153664D01*
X171130828Y-85142750D01*
X171017719Y-85146719D01*
X170860953Y-85160609D01*
X170692281Y-85184422D01*
X170539484Y-85222125D01*
X169772990Y-85222125D01*
X169733828Y-85200297D01*
X169564164Y-85148207D01*
X169380609Y-85130844D01*
X169194574Y-85148207D01*
X169025406Y-85200297D01*
X168875586Y-85284633D01*
X168747594Y-85398734D01*
X168643910Y-85540617D01*
X168567016Y-85708297D01*
X168519391Y-85898301D01*
X168503516Y-86107156D01*
X168146328Y-86107156D01*
X168146328Y-84372812D01*
X167658172Y-84289469D01*
X167658172Y-85222125D01*
X167459734Y-85156641D01*
X167269234Y-85138781D01*
X167097586Y-85156145D01*
X166947766Y-85208234D01*
X166715594Y-85406672D01*
X166633738Y-85548059D01*
X166574703Y-85714250D01*
X166538984Y-85902766D01*
X166527078Y-86111125D01*
X166283690Y-86111125D01*
X166266133Y-85895820D01*
X166209578Y-85694406D01*
X166122266Y-85523254D01*
X166011141Y-85382859D01*
X165879180Y-85273223D01*
X165729359Y-85194344D01*
X165568625Y-85146719D01*
X165403922Y-85130844D01*
X165150804Y-85157964D01*
X164941783Y-85239323D01*
X164776859Y-85374922D01*
X164657797Y-85562556D01*
X164586359Y-85800019D01*
X164562547Y-86087313D01*
X163430659Y-86087313D01*
X162742478Y-83793375D01*
G37*
G36*
X167525219Y-85581297D02*
G01*
X167658172Y-85634875D01*
X167658172Y-86646906D01*
X167541094Y-86662781D01*
X167435922Y-86666750D01*
X167265266Y-86634504D01*
X167134297Y-86537766D01*
X167050953Y-86363637D01*
X167023172Y-86099219D01*
X167044504Y-85868039D01*
X167108500Y-85698375D01*
X167216152Y-85594195D01*
X167368453Y-85559469D01*
X167525219Y-85581297D01*
G37*
G36*
X173522000Y-84985984D02*
G01*
X173643047Y-84995906D01*
X173643047Y-85789656D01*
X173444609Y-85789656D01*
X173239227Y-85766340D01*
X173091391Y-85696391D01*
X173002094Y-85569887D01*
X172972328Y-85376906D01*
X173001598Y-85193848D01*
X173089406Y-85073297D01*
X173225832Y-85006324D01*
X173400953Y-84984000D01*
X173522000Y-84985984D01*
G37*
G36*
X185469922Y-84985984D02*
G01*
X185549297Y-84995906D01*
X185549297Y-85734094D01*
X185442141Y-85734094D01*
X185226836Y-85709785D01*
X185080984Y-85636859D01*
X184969859Y-85361031D01*
X184999625Y-85192359D01*
X185088922Y-85075281D01*
X185226836Y-85006820D01*
X185402453Y-84984000D01*
X185469922Y-84985984D01*
G37*
G36*
X154821447Y-85966983D02*
G01*
X154832712Y-85891040D01*
X154851366Y-85816568D01*
X154877231Y-85744283D01*
X154910055Y-85674880D01*
X154949525Y-85609030D01*
X154995258Y-85547365D01*
X155046816Y-85490480D01*
X155103701Y-85438922D01*
X155165366Y-85393188D01*
X155231217Y-85353719D01*
X155300619Y-85320894D01*
X155372904Y-85295030D01*
X155447377Y-85276376D01*
X155523319Y-85265111D01*
X155600000Y-85261343D01*
X155676681Y-85265111D01*
X155752623Y-85276376D01*
X155827096Y-85295030D01*
X155899381Y-85320894D01*
X155968783Y-85353719D01*
X156034634Y-85393188D01*
X156096299Y-85438922D01*
X156153184Y-85490480D01*
X156204742Y-85547365D01*
X156250475Y-85609030D01*
X156289945Y-85674880D01*
X156322769Y-85744283D01*
X156348634Y-85816568D01*
X156367288Y-85891040D01*
X156378553Y-85966983D01*
X156382320Y-86043663D01*
X156382320Y-90538657D01*
X154817680Y-90538657D01*
X154817680Y-90283704D01*
X155060409Y-90283704D01*
X155167803Y-90225205D01*
X155229358Y-90188752D01*
X155293533Y-90147497D01*
X155359672Y-90102312D01*
X155427121Y-90054072D01*
X155493915Y-90003213D01*
X155558090Y-89950170D01*
X155614407Y-90004741D01*
X155678581Y-90060184D01*
X155749086Y-90114536D01*
X155824393Y-90165832D01*
X155902974Y-90213199D01*
X155983302Y-90255764D01*
X156063411Y-90291999D01*
X156141338Y-90320375D01*
X156141338Y-90077647D01*
X156009496Y-90022640D01*
X155939646Y-89984877D01*
X155871542Y-89943185D01*
X155806494Y-89898438D01*
X155745812Y-89851507D01*
X155647149Y-89759829D01*
X156141338Y-89759829D01*
X156141338Y-89545040D01*
X155060409Y-89545040D01*
X155060409Y-89759829D01*
X155509195Y-89759829D01*
X155400927Y-89840157D01*
X155282182Y-89919611D01*
X155165184Y-89988588D01*
X155060409Y-90040975D01*
X155060409Y-90283704D01*
X154817680Y-90283704D01*
X154817680Y-89131179D01*
X155035961Y-89131179D01*
X155045566Y-89235081D01*
X155067394Y-89316282D01*
X155093587Y-89374781D01*
X155114542Y-89410579D01*
X155285675Y-89354699D01*
X155241146Y-89257782D01*
X155222810Y-89127687D01*
X155241146Y-89029023D01*
X155302264Y-88943457D01*
X155416644Y-88882338D01*
X155496971Y-88864658D01*
X155594761Y-88858764D01*
X155708559Y-88865846D01*
X155803147Y-88887092D01*
X155878527Y-88922502D01*
X155952524Y-89006540D01*
X155977190Y-89131179D01*
X155957981Y-89270006D01*
X155919564Y-89358192D01*
X156088950Y-89412325D01*
X156140464Y-89289215D01*
X156158145Y-89205613D01*
X156164039Y-89110224D01*
X156147740Y-88969748D01*
X156098845Y-88853331D01*
X156017354Y-88760974D01*
X155936262Y-88708259D01*
X155839673Y-88670606D01*
X155727585Y-88648013D01*
X155600000Y-88640483D01*
X155472960Y-88649651D01*
X155360764Y-88677154D01*
X155264065Y-88721029D01*
X155183519Y-88779310D01*
X155119781Y-88850906D01*
X155073506Y-88934726D01*
X155045347Y-89028805D01*
X155035961Y-89131179D01*
X154817680Y-89131179D01*
X154817680Y-88072952D01*
X155048185Y-88072952D01*
X155056043Y-88174889D01*
X155079618Y-88267658D01*
X155120000Y-88349077D01*
X155178281Y-88416963D01*
X155254679Y-88471315D01*
X155349413Y-88512133D01*
X155464011Y-88537672D01*
X155600000Y-88546185D01*
X155739045Y-88536799D01*
X155855826Y-88508641D01*
X155951651Y-88463893D01*
X156027831Y-88404739D01*
X156085239Y-88332051D01*
X156124748Y-88246703D01*
X156147668Y-88150441D01*
X156155308Y-88045012D01*
X156149196Y-87932378D01*
X156129114Y-87814507D01*
X155074379Y-87814507D01*
X155053424Y-87952460D01*
X155048185Y-88072952D01*
X154817680Y-88072952D01*
X154817680Y-87680045D01*
X155060409Y-87680045D01*
X155195088Y-87674807D01*
X155333697Y-87669568D01*
X155473833Y-87663892D01*
X155613097Y-87657344D01*
X155750832Y-87649704D01*
X155886385Y-87640755D01*
X156017354Y-87630495D01*
X156141338Y-87618927D01*
X156141338Y-87440809D01*
X156027176Y-87402392D01*
X155904721Y-87363974D01*
X155780955Y-87325557D01*
X155662865Y-87287139D01*
X155777681Y-87247848D01*
X155902101Y-87206812D01*
X156026522Y-87166648D01*
X156141338Y-87129977D01*
X156141338Y-86951859D01*
X156017135Y-86938762D01*
X155885512Y-86927412D01*
X155749304Y-86917589D01*
X155611351Y-86909076D01*
X155472087Y-86901873D01*
X155331951Y-86895979D01*
X155193779Y-86891177D01*
X155060409Y-86887248D01*
X155060409Y-87086320D01*
X155165184Y-87084574D01*
X155273451Y-87082828D01*
X155383247Y-87081082D01*
X155492606Y-87079335D01*
X155600437Y-87077589D01*
X155705648Y-87075843D01*
X155806276Y-87074533D01*
X155900355Y-87074097D01*
X155778118Y-87109895D01*
X155647149Y-87148312D01*
X155528404Y-87182364D01*
X155442837Y-87206812D01*
X155442837Y-87363974D01*
X155524911Y-87384929D01*
X155633179Y-87415488D01*
X155760655Y-87452160D01*
X155900355Y-87491450D01*
X155806276Y-87491014D01*
X155705648Y-87489704D01*
X155600655Y-87487958D01*
X155493479Y-87486212D01*
X155384556Y-87484465D01*
X155274324Y-87482719D01*
X155165402Y-87481409D01*
X155060409Y-87480973D01*
X155060409Y-87680045D01*
X154817680Y-87680045D01*
X154817680Y-86429730D01*
X155035961Y-86429730D01*
X155041637Y-86522936D01*
X155058662Y-86603482D01*
X155109304Y-86728339D01*
X155275197Y-86665474D01*
X155233287Y-86568557D01*
X155215825Y-86445447D01*
X155229601Y-86350373D01*
X155270929Y-86293329D01*
X155339809Y-86274314D01*
X155394816Y-86291777D01*
X155436726Y-86336306D01*
X155469031Y-86397425D01*
X155495225Y-86464655D01*
X155538008Y-86570303D01*
X155600873Y-86671586D01*
X155698663Y-86747548D01*
X155764802Y-86769812D01*
X155846221Y-86777234D01*
X155980901Y-86752568D01*
X156081092Y-86678571D01*
X156127173Y-86601445D01*
X156154822Y-86501618D01*
X156164039Y-86379089D01*
X156156835Y-86258161D01*
X156135226Y-86164300D01*
X156081965Y-86043809D01*
X155907340Y-86106674D01*
X155959728Y-86219307D01*
X155978063Y-86291995D01*
X155984175Y-86379089D01*
X155972824Y-86469021D01*
X155941392Y-86525774D01*
X155895989Y-86554587D01*
X155844475Y-86562445D01*
X155785103Y-86543237D01*
X155738827Y-86494342D01*
X155702156Y-86427984D01*
X155671596Y-86354642D01*
X155631433Y-86253359D01*
X155573806Y-86158188D01*
X155487367Y-86087465D01*
X155359017Y-86059525D01*
X155223683Y-86084191D01*
X155121527Y-86158188D01*
X155073991Y-86232210D01*
X155045469Y-86322724D01*
X155035961Y-86429730D01*
X154817680Y-86429730D01*
X154817680Y-86043663D01*
X154821447Y-85966983D01*
G37*
G36*
X155968459Y-88048504D02*
G01*
X155968459Y-88067713D01*
X155940519Y-88190823D01*
X155863684Y-88271151D01*
X155747558Y-88314807D01*
X155677053Y-88324630D01*
X155600000Y-88327904D01*
X155463792Y-88317427D01*
X155346794Y-88280755D01*
X155265593Y-88209159D01*
X155235034Y-88092160D01*
X155235907Y-88060728D01*
X155240272Y-88029295D01*
X155966713Y-88029295D01*
X155968459Y-88048504D01*
G37*
%LPC*%
D12*
X182900000Y-83110000D03*
X182900000Y-88890000D03*
D13*
X182370000Y-90320000D03*
X182370000Y-81680000D03*
D14*
X186550000Y-90320000D03*
X186550000Y-81680000D03*
D15*
X148808000Y-80000000D03*
D16*
X148500000Y-80000000D03*
X148500000Y-81500000D03*
D15*
X148808000Y-81500000D03*
D16*
X148500000Y-83000000D03*
D15*
X148808000Y-83000000D03*
D16*
X148500000Y-84500000D03*
D15*
X148808000Y-84500000D03*
X148808000Y-86000000D03*
D16*
X148500000Y-86000000D03*
X148500000Y-87500000D03*
D15*
X148808000Y-87500000D03*
X148808000Y-89000000D03*
D16*
X148500000Y-89000000D03*
D15*
X148808000Y-90500000D03*
D16*
X148500000Y-90500000D03*
D15*
X148800000Y-92000000D03*
D16*
X148500000Y-92000000D03*
D17*
X179000000Y-79300000D03*
D16*
X179000000Y-79000000D03*
D17*
X180500000Y-79308000D03*
D16*
X180500000Y-79000000D03*
X182000000Y-79000000D03*
D17*
X182000000Y-79308000D03*
D18*
X182000000Y-92700000D03*
D16*
X182000000Y-93000000D03*
D18*
X180500000Y-92692000D03*
D16*
X180500000Y-93000000D03*
D19*
X155640000Y-79784000D03*
X155640000Y-81816000D03*
X150560000Y-80800000D03*
D20*
X151830000Y-80165000D03*
X151830000Y-81435000D03*
X153100000Y-80165000D03*
X153100000Y-81435000D03*
X154370000Y-80165000D03*
X154370000Y-81435000D03*
D21*
X158100000Y-91800000D03*
X153060000Y-91800000D03*
X150550000Y-91800000D03*
X155600000Y-91800000D03*
M02*
